StickNoBillsDraft-Bold.ufo
<glyph name="exclam" format="1">
  <advance width="329"/>
  <unicode hex="0021"/>
  <outline>
    <contour>
      <point x="73" y="53" type="curve" smooth="yes"/>
      <point x="73" y="103.011"/>
      <point x="112.533" y="144"/>
      <point x="163" y="144" type="curve" smooth="yes"/>
      <point x="213.467" y="144"/>
      <point x="253" y="103.011"/>
      <point x="253" y="53" type="curve" smooth="yes"/>
      <point x="253" y="2.80023"/>
      <point x="213.2" y="-37"/>
      <point x="163" y="-37" type="curve" smooth="yes"/>
      <point x="112.8" y="-37"/>
      <point x="73" y="2.80006"/>
    </contour>
    <contour>
      <point x="85" y="151" type="line"/>
      <point x="85" y="715" type="line"/>
      <point x="244" y="715" type="line"/>
      <point x="244" y="151" type="line"/>
    </contour>
  </outline>
</glyph>
<glyph name="quotedbl" format="1">
  <advance width="407"/>
  <unicode hex="0022"/>
  <outline>
    <contour>
      <point x="192" y="450" type="line"/>
      <point x="35" y="450" type="line"/>
      <point x="35" y="751" type="line"/>
      <point x="192" y="751" type="line"/>
    </contour>
    <contour>
      <point x="372" y="450" type="line"/>
      <point x="215" y="450" type="line"/>
      <point x="215" y="751" type="line"/>
      <point x="372" y="751" type="line"/>
    </contour>
  </outline>
</glyph>
<glyph name="dollar" format="1">
  <advance width="561"/>
  <unicode hex="0024"/>
  <outline>
    <contour>
      <point x="305.594" y="442" type="line" smooth="yes"/>
      <point x="335.831" y="431.847"/>
      <point x="366.051" y="420.744"/>
      <point x="393.924" y="406.989" type="curve"/>
      <point x="457.353" y="370.639"/>
      <point x="531.255" y="319.207"/>
      <point x="531.255" y="209" type="curve" smooth="yes"/>
      <point x="531.255" y="124.551"/>
      <point x="474.461" y="49.9639"/>
      <point x="399.255" y="15.834" type="curve"/>
      <point x="399.255" y="-47" type="line"/>
      <point x="287.797" y="-47" type="line"/>
      <point x="287.797" y="155.126" type="line"/>
      <point x="303.161" y="156.769" type="line" smooth="yes"/>
      <point x="325.007" y="158.535"/>
      <point x="360.255" y="169.726"/>
      <point x="360.255" y="203" type="curve" smooth="yes"/>
      <point x="360.255" y="232.229"/>
      <point x="337.33" y="250.035"/>
      <point x="291.921" y="266.508" type="curve" smooth="yes"/>
      <point x="282.247" y="270.61" type="line"/>
      <point x="282.247" y="449.841" type="line"/>
    </contour>
    <contour>
      <point x="253.613" y="750" type="line"/>
      <point x="253.613" y="542.263" type="line"/>
      <point x="241.152" y="539.154" type="line" smooth="yes"/>
      <point x="225.026" y="536.562"/>
      <point x="206.653" y="523.832"/>
      <point x="206.653" y="513" type="curve" smooth="yes"/>
      <point x="206.653" y="493.577"/>
      <point x="219.319" y="481.027"/>
      <point x="245.537" y="466.72" type="curve" smooth="yes"/>
      <point x="253.613" y="462.313" type="line"/>
      <point x="253.613" y="280.488" type="line"/>
      <point x="230.493" y="287.925" type="line" smooth="yes"/>
      <point x="208.491" y="295.002"/>
      <point x="187.668" y="302.049"/>
      <point x="169.844" y="309.438" type="curve"/>
      <point x="96.1592" y="344.724"/>
      <point x="38.2549" y="396.404"/>
      <point x="38.2549" y="508" type="curve" smooth="yes"/>
      <point x="38.2549" y="594.329"/>
      <point x="90.6367" y="646.94"/>
      <point x="142.255" y="674.88" type="curve"/>
      <point x="142.255" y="750" type="line"/>
    </contour>
    <contour>
      <point x="397.929" y="677.945" type="line"/>
      <point x="463.779" y="642.347"/>
      <point x="497.224" y="581.867"/>
      <point x="503.004" y="553" type="curve" smooth="yes"/>
      <point x="505.386" y="542.867" type="line"/>
      <point x="336.139" y="489.918" type="line"/>
      <point x="333.885" y="508.413" type="line" smooth="yes"/>
      <point x="329.498" y="532.901"/>
      <point x="295.889" y="538.925"/>
      <point x="294.739" y="539.132" type="curve"/>
      <point x="282.247" y="542.206" type="line"/>
      <point x="282.247" y="750" type="line"/>
      <point x="397.929" y="750" type="line"/>
    </contour>
    <contour>
      <point x="258.562" y="-47" type="line"/>
      <point x="142.255" y="-47" type="line"/>
      <point x="142.255" y="16.9678" type="line"/>
      <point x="73.5576" y="49.8193"/>
      <point x="31.3926" y="114.129"/>
      <point x="30.2588" y="157.643" type="curve" smooth="yes"/>
      <point x="30" y="168.509" type="line"/>
      <point x="192.213" y="223.967" type="line"/>
      <point x="193.066" y="203.535" type="line" smooth="yes"/>
      <point x="194.92" y="169.109"/>
      <point x="245.621" y="155.487"/>
      <point x="247.183" y="155.089" type="curve" smooth="yes"/>
      <point x="258.562" y="151.438" type="line"/>
    </contour>
  </outline>
</glyph>
<glyph name="Percent_sign" format="1">
  <advance width="689"/>
  <unicode hex="0025"/>
  <outline>
    <contour>
      <point x="334.666" y="-23" type="line"/>
      <point x="156.934" y="-23" type="line"/>
      <point x="353.855" y="716" type="line"/>
      <point x="523.682" y="716" type="line"/>
    </contour>
    <contour>
      <point x="149.01" y="452" type="curve" smooth="yes"/>
      <point x="80.7529" y="452"/>
      <point x="26" y="506.75"/>
      <point x="26" y="575" type="curve" smooth="yes"/>
      <point x="26" y="643.247"/>
      <point x="80.75" y="698"/>
      <point x="149.01" y="698" type="curve" smooth="yes"/>
      <point x="222.925" y="698"/>
      <point x="282.225" y="643.25"/>
      <point x="282.225" y="575" type="curve" smooth="yes"/>
      <point x="282.225" y="506.753"/>
      <point x="222.928" y="452"/>
    </contour>
    <contour>
      <point x="540" y="-6" type="curve" smooth="yes"/>
      <point x="471.753" y="-6"/>
      <point x="417" y="48.75"/>
      <point x="417" y="117" type="curve" smooth="yes"/>
      <point x="417" y="185.247"/>
      <point x="471.75" y="240"/>
      <point x="540" y="240" type="curve" smooth="yes"/>
      <point x="608.247" y="240"/>
      <point x="663" y="185.25"/>
      <point x="663" y="117" type="curve" smooth="yes"/>
      <point x="663" y="48.7529"/>
      <point x="608.25" y="-6"/>
    </contour>
  </outline>
</glyph>
<glyph name="ampersand" format="1">
  <advance width="687"/>
  <unicode hex="0026"/>
  <outline>
    <contour>
      <point x="262.11" y="563.897" type="line" smooth="yes"/>
      <point x="260.434" y="563.215"/>
      <point x="246" y="557.366"/>
      <point x="246" y="536" type="curve" smooth="yes"/>
      <point x="246" y="507.494"/>
      <point x="256.366" y="510.848"/>
      <point x="267.607" y="499.607" type="curve" smooth="yes"/>
      <point x="272" y="495.213" type="line"/>
      <point x="272" y="228.451" type="line"/>
      <point x="231.647" y="275.53" type="line"/>
      <point x="211.509" y="256.289"/>
      <point x="198" y="238.361"/>
      <point x="198" y="204" type="curve" smooth="yes"/>
      <point x="198" y="168.241"/>
      <point x="216.523" y="150"/>
      <point x="257" y="150" type="curve" smooth="yes"/>
      <point x="272" y="150" type="line"/>
      <point x="272" y="-12" type="line"/>
      <point x="257" y="-12" type="line" smooth="yes"/>
      <point x="99.8298" y="-12"/>
      <point x="11" y="84.8887"/>
      <point x="11" y="214" type="curve" smooth="yes"/>
      <point x="11" y="304.433"/>
      <point x="61.1795" y="369.678"/>
      <point x="125.882" y="407.604" type="curve"/>
      <point x="100.201" y="438.588"/>
      <point x="79" y="487.937"/>
      <point x="79" y="528" type="curve" smooth="yes"/>
      <point x="79" y="629.124"/>
      <point x="145.368" y="694.762"/>
      <point x="254.031" y="716.703" type="curve" smooth="yes"/>
      <point x="272" y="720.332" type="line"/>
      <point x="272" y="567.433" type="line"/>
    </contour>
    <contour>
      <point x="319.623" y="714.769" type="line" smooth="yes"/>
      <point x="432.462" y="694.732"/>
      <point x="492" y="624.947"/>
      <point x="492" y="520" type="curve" smooth="yes"/>
      <point x="492" y="444.939"/>
      <point x="438.439" y="384.176"/>
      <point x="386.92" y="355.836" type="curve"/>
      <point x="428.289" y="306.558" type="line"/>
      <point x="434.346" y="320.262"/>
      <point x="437.724" y="331.969"/>
      <point x="440.188" y="347.37" type="curve" smooth="yes"/>
      <point x="442.209" y="360" type="line"/>
      <point x="611.261" y="360" type="line"/>
      <point x="608.853" y="342.908" type="line" smooth="yes"/>
      <point x="599.177" y="274.203"/>
      <point x="574.61" y="224.907"/>
      <point x="539.529" y="180.294" type="curve"/>
      <point x="693.678" y="1" type="line"/>
      <point x="457.006" y="1" type="line"/>
      <point x="415.18" y="50.8351" type="line"/>
      <point x="388.17" y="29.747"/>
      <point x="353.866" y="10.9329"/>
      <point x="321.121" y="1.57714" type="curve" smooth="yes"/>
      <point x="302" y="-3.88595" type="line"/>
      <point x="302" y="175.719" type="line"/>
      <point x="308.281" y="180.206" type="line" smooth="yes"/>
      <point x="309.192" y="180.856"/>
      <point x="310.584" y="181.864"/>
      <point x="310.794" y="182.017" type="curve"/>
      <point x="302" y="192.569" type="line"/>
      <point x="302" y="493.108" type="line"/>
      <point x="307.501" y="497.609" type="line" smooth="yes"/>
      <point x="320.018" y="507.85"/>
      <point x="329" y="511.06"/>
      <point x="329" y="533" type="curve" smooth="yes"/>
      <point x="329" y="554.719"/>
      <point x="327.997" y="559.343"/>
      <point x="310.062" y="568.701" type="curve" smooth="yes"/>
      <point x="302" y="572.907" type="line"/>
      <point x="302" y="717.898" type="line"/>
    </contour>
  </outline>
</glyph>
<glyph name="quotesingle" format="1">
  <advance width="227"/>
  <unicode hex="0027"/>
  <outline>
    <contour>
      <point x="192" y="450" type="line"/>
      <point x="35" y="450" type="line"/>
      <point x="35" y="751" type="line"/>
      <point x="192" y="751" type="line"/>
    </contour>
  </outline>
</glyph>
<glyph name="parenright" format="1">
  <advance width="330"/>
  <unicode hex="0029"/>
  <outline>
    <contour>
      <point x="106.21" y="760.066" type="line" smooth="yes"/>
      <point x="216.884" y="719.076"/>
      <point x="295" y="657.231"/>
      <point x="295" y="510" type="curve" smooth="yes"/>
      <point x="295" y="189" type="line" smooth="yes"/>
      <point x="295" y="87.9178"/>
      <point x="253.447" y="-3.00439"/>
      <point x="106.503" y="-60.9541" type="curve" smooth="yes"/>
      <point x="86" y="-69.0398" type="line"/>
      <point x="86" y="59.2886" type="line"/>
      <point x="93.0174" y="63.6995" type="line" smooth="yes"/>
      <point x="123.596" y="82.9202"/>
      <point x="146" y="106.658"/>
      <point x="146" y="202" type="curve" smooth="yes"/>
      <point x="146" y="520.896" type="line"/>
      <point x="145.046" y="589.548"/>
      <point x="126.744" y="615.814"/>
      <point x="92.3802" y="636.08" type="curve" smooth="yes"/>
      <point x="84.9114" y="640.484" type="line"/>
      <point x="86.2205" y="767.47" type="line"/>
    </contour>
  </outline>
</glyph>
<glyph name="plus" format="1">
  <advance width="475"/>
  <unicode hex="002B"/>
  <outline>
    <contour>
      <point x="440" y="372" type="line"/>
      <point x="440" y="215" type="line"/>
      <point x="315" y="215" type="line"/>
      <point x="315" y="72" type="line"/>
      <point x="158" y="72" type="line"/>
      <point x="158" y="215" type="line"/>
      <point x="35" y="215" type="line"/>
      <point x="35" y="372" type="line"/>
      <point x="158" y="372" type="line"/>
      <point x="158" y="513" type="line"/>
      <point x="315" y="513" type="line"/>
      <point x="315" y="372" type="line"/>
    </contour>
  </outline>
</glyph>
<glyph name="comma" format="1">
  <advance width="265"/>
  <unicode hex="002C"/>
  <outline>
    <contour>
      <point x="189.787" y="-38" type="line"/>
      <point x="31.9107" y="-38" type="line"/>
      <point x="76.2133" y="144" type="line"/>
      <point x="234.089" y="144" type="line"/>
    </contour>
  </outline>
</glyph>
<glyph name="hyphen" format="1">
  <advance width="416"/>
  <unicode hex="002D"/>
  <outline>
    <contour>
      <point x="381" y="372" type="line"/>
      <point x="381" y="215" type="line"/>
      <point x="35" y="215" type="line"/>
      <point x="35" y="372" type="line"/>
    </contour>
  </outline>
</glyph>
<glyph name="period" format="1">
  <advance width="250"/>
  <unicode hex="002E"/>
  <outline>
    <contour>
      <point x="35" y="53" type="curve" smooth="yes"/>
      <point x="35" y="103.011"/>
      <point x="74.5327" y="144"/>
      <point x="125" y="144" type="curve" smooth="yes"/>
      <point x="175.467" y="144"/>
      <point x="215" y="103.011"/>
      <point x="215" y="53" type="curve" smooth="yes"/>
      <point x="215" y="2.80023"/>
      <point x="175.2" y="-37"/>
      <point x="125" y="-37" type="curve" smooth="yes"/>
      <point x="74.8002" y="-37"/>
      <point x="35" y="2.80006"/>
    </contour>
  </outline>
</glyph>
<glyph name="slash" format="1">
  <advance width="401"/>
  <unicode hex="002F"/>
  <outline>
    <contour>
      <point x="31.0331" y="-38" type="line"/>
      <point x="213.137" y="731" type="line"/>
      <point x="369.942" y="731" type="line"/>
      <point x="188.878" y="-38" type="line"/>
    </contour>
  </outline>
</glyph>
<glyph name="three" format="1">
  <advance width="544"/>
  <unicode hex="0033"/>
  <outline>
    <contour>
      <point x="164.991" y="513.68" type="curve" smooth="yes"/>
      <point x="157.09" y="501.828" type="line"/>
      <point x="26" y="579.74" type="line"/>
      <point x="33.5869" y="592.615" type="line" smooth="yes"/>
      <point x="68.8184" y="652.402"/>
      <point x="131.672" y="698"/>
      <point x="215.51" y="698" type="curve" smooth="yes"/>
      <point x="230.51" y="698" type="line"/>
      <point x="230.51" y="542.999" type="line"/>
      <point x="216.542" y="542.035" type="line" smooth="yes"/>
      <point x="191.538" y="540.312"/>
      <point x="176.478" y="530.909"/>
    </contour>
    <contour>
      <point x="259.387" y="152" type="line"/>
      <point x="274.51" y="152" type="line" smooth="yes"/>
      <point x="325.73" y="152"/>
      <point x="362.51" y="179.211"/>
      <point x="362.51" y="208.836" type="curve" smooth="yes"/>
      <point x="362.51" y="253.687"/>
      <point x="352.861" y="271"/>
      <point x="208.51" y="271" type="curve" smooth="yes"/>
      <point x="193.51" y="271" type="line"/>
      <point x="193.51" y="425" type="line"/>
      <point x="208.51" y="425" type="line" smooth="yes"/>
      <point x="354.625" y="425"/>
      <point x="362.51" y="445.183"/>
      <point x="362.51" y="490.717" type="curve" smooth="yes"/>
      <point x="362.51" y="530.095"/>
      <point x="314.151" y="544"/>
      <point x="276.51" y="544" type="curve" smooth="yes"/>
      <point x="257.51" y="544" type="line"/>
      <point x="257.51" y="698.34" type="line"/>
      <point x="272.846" y="697.996" type="line" smooth="yes"/>
      <point x="446.169" y="694.92"/>
      <point x="518.51" y="579.347"/>
      <point x="518.51" y="501.447" type="curve" smooth="yes"/>
      <point x="518.51" y="421.2"/>
      <point x="496.13" y="374"/>
      <point x="466.502" y="349.02" type="curve"/>
      <point x="495.382" y="322.624"/>
      <point x="523.51" y="276.701"/>
      <point x="523.51" y="205.182" type="curve" smooth="yes"/>
      <point x="523.51" y="76.2285"/>
      <point x="394.281" y="0"/>
      <point x="277.51" y="0" type="curve" smooth="yes"/>
      <point x="260.633" y="0" type="line"/>
    </contour>
    <contour>
      <point x="157.09" y="195.172" type="line"/>
      <point x="164.991" y="183.32" type="line" smooth="yes"/>
      <point x="176.527" y="166.016"/>
      <point x="191.601" y="156.685"/>
      <point x="216.542" y="154.965" type="curve" smooth="yes"/>
      <point x="230.51" y="154.001" type="line"/>
      <point x="230.51" y="-1" type="line"/>
      <point x="215.51" y="-1" type="line" smooth="yes"/>
      <point x="133.122" y="-1"/>
      <point x="69.7471" y="33.0625"/>
      <point x="33.1338" y="105.212" type="curve" smooth="yes"/>
      <point x="26.7842" y="117.726" type="line"/>
    </contour>
  </outline>
</glyph>
<glyph name="four" format="1">
  <advance width="543"/>
  <unicode hex="0034"/>
  <outline>
    <contour>
      <point x="211.092" y="287" type="line"/>
      <point x="261.789" y="287" type="line"/>
      <point x="261.789" y="130" type="line"/>
      <point x="26" y="130" type="line"/>
      <point x="26" y="276.052" type="line"/>
      <point x="261.789" y="653.525" type="line"/>
      <point x="261.789" y="346.951" type="line"/>
    </contour>
    <contour>
      <point x="463" y="287" type="line"/>
      <point x="517" y="287" type="line"/>
      <point x="517" y="130" type="line"/>
      <point x="463" y="130" type="line"/>
      <point x="463" y="0" type="line"/>
      <point x="303" y="0" type="line"/>
      <point x="303" y="701" type="line"/>
      <point x="463" y="701" type="line"/>
    </contour>
  </outline>
</glyph>
<glyph name="five" format="1">
  <advance width="582"/>
  <unicode hex="0035"/>
  <outline>
    <contour>
      <point x="501.585" y="700" type="line"/>
      <point x="501.585" y="553.309" type="line"/>
      <point x="202.279" y="552.362" type="line"/>
      <point x="193.316" y="460.216" type="line"/>
      <point x="203.977" y="461.541"/>
      <point x="211.294" y="462"/>
      <point x="221.585" y="462" type="curve" smooth="yes"/>
      <point x="236.585" y="462" type="line"/>
      <point x="236.585" y="310.266" type="line"/>
      <point x="222.903" y="309.058" type="line" smooth="yes"/>
      <point x="194.486" y="306.551"/>
      <point x="175.912" y="289.897"/>
      <point x="165.298" y="276.63" type="curve" smooth="yes"/>
      <point x="156.998" y="266.255" type="line"/>
      <point x="27.8682" y="346.081" type="line"/>
      <point x="58.7891" y="700" type="line"/>
    </contour>
    <contour>
      <point x="290.585" y="477.318" type="line"/>
      <point x="305.914" y="476.997" type="line" smooth="yes"/>
      <point x="488.729" y="473.79"/>
      <point x="558.585" y="353.521"/>
      <point x="558.585" y="238" type="curve" smooth="yes"/>
      <point x="558.585" y="88.5908"/>
      <point x="448.335" y="2.14453"/>
      <point x="305.87" y="0.00292969" type="curve" smooth="yes"/>
      <point x="290.585" y="-0.288086" type="line"/>
      <point x="290.585" y="153.496" type="line"/>
      <point x="302.875" y="155.753" type="line" smooth="yes"/>
      <point x="363.479" y="163.438"/>
      <point x="400.585" y="195.646"/>
      <point x="400.585" y="239" type="curve" smooth="yes"/>
      <point x="400.585" y="287.381"/>
      <point x="347.413" y="320.146"/>
      <point x="303.628" y="324.128" type="curve" smooth="yes"/>
      <point x="290.585" y="325.845" type="line"/>
    </contour>
    <contour>
      <point x="154.256" y="211.718" type="line"/>
      <point x="161.914" y="196.88" type="line" smooth="yes"/>
      <point x="174.95" y="171.621"/>
      <point x="199.604" y="160.325"/>
      <point x="224.316" y="155.749" type="curve" smooth="yes"/>
      <point x="236.585" y="153.478" type="line"/>
      <point x="236.585" y="0" type="line"/>
      <point x="221.585" y="0" type="line" smooth="yes"/>
      <point x="131.569" y="0"/>
      <point x="66.4668" y="49.9043"/>
      <point x="32.3018" y="115.032" type="curve" smooth="yes"/>
      <point x="26" y="127.044" type="line"/>
    </contour>
  </outline>
</glyph>
<glyph name="eight" format="1">
  <advance width="606"/>
  <unicode hex="0038"/>
  <outline>
    <contour>
      <point x="332.847" y="145.191" type="line"/>
      <point x="345.054" y="148.105" type="line" smooth="yes"/>
      <point x="386.706" y="155.053"/>
      <point x="422" y="179.292"/>
      <point x="422" y="207.099" type="curve" smooth="yes"/>
      <point x="422" y="248.506"/>
      <point x="337.919" y="264.577"/>
      <point x="306.214" y="271.875" type="curve" smooth="yes"/>
      <point x="293.4" y="274.825" type="line"/>
      <point x="293.4" y="421.007" type="line"/>
      <point x="305.837" y="424.117" type="line" smooth="yes"/>
      <point x="341.592" y="433.059"/>
      <point x="359" y="446.923"/>
      <point x="359" y="490.901" type="curve" smooth="yes"/>
      <point x="359" y="533.76"/>
      <point x="322.917" y="545.482"/>
      <point x="306.911" y="547.665" type="curve" smooth="yes"/>
      <point x="292.229" y="549.668" type="line"/>
      <point x="292.229" y="698" type="line"/>
      <point x="309.8" y="698" type="line" smooth="yes"/>
      <point x="395.535" y="698"/>
      <point x="512" y="616.614"/>
      <point x="512" y="492.818" type="curve" smooth="yes"/>
      <point x="512" y="425.121"/>
      <point x="483.839" y="371.532"/>
      <point x="463.344" y="348.677" type="curve"/>
      <point x="492.118" y="320.126"/>
      <point x="520" y="266.705"/>
      <point x="580" y="205.182" type="curve" smooth="yes"/>
      <point x="580" y="54.1406"/>
      <point x="426.872" y="0"/>
      <point x="351" y="0" type="curve" smooth="yes"/>
      <point x="335.119" y="0" type="line"/>
    </contour>
    <contour>
      <point x="260.946" y="148.105" type="curve" smooth="yes"/>
      <point x="273.153" y="145.191" type="line"/>
      <point x="270.881" y="0" type="line"/>
      <point x="255" y="0" type="line" smooth="yes"/>
      <point x="189.745" y="0"/>
      <point x="26" y="54.1406"/>
      <point x="26" y="205.182" type="curve" smooth="yes"/>
      <point x="26" y="267.055"/>
      <point x="54.957" y="321.192"/>
      <point x="82.5967" y="348.617" type="curve"/>
      <point x="61.0781" y="372.193"/>
      <point x="33" y="425.414"/>
      <point x="33" y="492.818" type="curve" smooth="yes"/>
      <point x="33" y="616.707"/>
      <point x="150.542" y="698"/>
      <point x="241.857" y="698" type="curve" smooth="yes"/>
      <point x="259.429" y="698" type="line"/>
      <point x="259.429" y="549.668" type="line"/>
      <point x="244.746" y="547.665" type="line" smooth="yes"/>
      <point x="228.788" y="545.488"/>
      <point x="192.657" y="533.678"/>
      <point x="192.657" y="490.901" type="curve" smooth="yes"/>
      <point x="192.657" y="446.922"/>
      <point x="210.067" y="433.059"/>
      <point x="245.82" y="424.117" type="curve" smooth="yes"/>
      <point x="258.257" y="421.007" type="line"/>
      <point x="258.257" y="274.825" type="line"/>
      <point x="245.443" y="271.875" type="line" smooth="yes"/>
      <point x="213.736" y="264.576"/>
      <point x="196.676" y="248.504"/>
      <point x="196.676" y="207.099" type="curve" smooth="yes"/>
      <point x="196.676" y="179.291"/>
      <point x="225.66" y="155.054"/>
    </contour>
  </outline>
</glyph>
<glyph name="nine" format="1">
  <advance width="564"/>
  <unicode hex="0039"/>
  <outline>
    <contour>
      <point x="263.296" y="259" type="line"/>
      <point x="245.941" y="259" type="line" smooth="yes"/>
      <point x="99.9131" y="259"/>
      <point x="26" y="349.926"/>
      <point x="26" y="477.565" type="curve" smooth="yes"/>
      <point x="26" y="605.568"/>
      <point x="122.822" y="698.945"/>
      <point x="245.771" y="699.999" type="curve" smooth="yes"/>
      <point x="263.147" y="700.149" type="line"/>
      <point x="263.147" y="552.633" type="line"/>
      <point x="247.895" y="551.163" type="line" smooth="yes"/>
      <point x="215.775" y="548.068"/>
      <point x="179.412" y="522.691"/>
      <point x="179.412" y="483.371" type="curve" smooth="yes"/>
      <point x="179.412" y="413.046"/>
      <point x="228.936" y="404.211"/>
      <point x="249.173" y="399.722" type="curve" smooth="yes"/>
      <point x="261.886" y="396.9" type="line"/>
    </contour>
    <contour>
      <point x="160.404" y="212.946" type="line"/>
      <point x="168.795" y="202.268" type="line" smooth="yes"/>
      <point x="191.5" y="173.37"/>
      <point x="196.994" y="161.288"/>
      <point x="234.732" y="156.899" type="curve" smooth="yes"/>
      <point x="248" y="155.356" type="line"/>
      <point x="248" y="1" type="line"/>
      <point x="233" y="1" type="line" smooth="yes"/>
      <point x="148.226" y="1"/>
      <point x="79.6787" y="55.2256"/>
      <point x="44.668" y="123.126" type="curve" smooth="yes"/>
      <point x="38.3906" y="135.301" type="line"/>
    </contour>
    <contour>
      <point x="299.036" y="2.00391" type="curve" smooth="yes"/>
      <point x="279.129" y="1.64746" type="line"/>
      <point x="279.129" y="145.795" type="line"/>
      <point x="294.616" y="148.146" type="line" smooth="yes"/>
      <point x="356.293" y="157.565"/>
      <point x="374.754" y="219.734"/>
      <point x="378.327" y="272.907" type="curve"/>
      <point x="356.203" y="263.886"/>
      <point x="333.587" y="259"/>
      <point x="307.882" y="259" type="curve" smooth="yes"/>
      <point x="290.676" y="259" type="line"/>
      <point x="290.676" y="407" type="line"/>
      <point x="306.853" y="407" type="line"/>
      <point x="327.64" y="411.606"/>
      <point x="368.676" y="422.902"/>
      <point x="368.676" y="485.958" type="curve" smooth="yes"/>
      <point x="368.676" y="517.175"/>
      <point x="338.323" y="549.812"/>
      <point x="306.081" y="552.627" type="curve" smooth="yes"/>
      <point x="290.676" y="553.972" type="line"/>
      <point x="290.676" y="700" type="line"/>
      <point x="307.882" y="700" type="line" smooth="yes"/>
      <point x="507.86" y="700"/>
      <point x="538" y="504.144"/>
      <point x="538" y="341.412" type="curve" smooth="yes"/>
      <point x="538" y="230.972"/>
      <point x="505.583" y="6.20117"/>
    </contour>
  </outline>
</glyph>
<glyph name="colon" format="1">
  <advance width="250"/>
  <unicode hex="003A"/>
  <outline>
    <contour>
      <point x="35" y="70" type="curve" smooth="yes"/>
      <point x="35" y="120.011"/>
      <point x="74.5327" y="161"/>
      <point x="125" y="161" type="curve" smooth="yes"/>
      <point x="175.467" y="161"/>
      <point x="215" y="120.011"/>
      <point x="215" y="70" type="curve" smooth="yes"/>
      <point x="215" y="19.8002"/>
      <point x="175.2" y="-20"/>
      <point x="125" y="-20" type="curve" smooth="yes"/>
      <point x="74.8002" y="-20"/>
      <point x="35" y="19.8001"/>
    </contour>
    <contour>
      <point x="35" y="360" type="curve" smooth="yes"/>
      <point x="35" y="410.011"/>
      <point x="74.5327" y="451"/>
      <point x="125" y="451" type="curve" smooth="yes"/>
      <point x="175.467" y="451"/>
      <point x="215" y="410.011"/>
      <point x="215" y="360" type="curve" smooth="yes"/>
      <point x="215" y="309.8"/>
      <point x="175.2" y="270"/>
      <point x="125" y="270" type="curve" smooth="yes"/>
      <point x="74.8002" y="270"/>
      <point x="35" y="309.8"/>
    </contour>
  </outline>
</glyph>
<glyph name="semicolon" format="1">
  <advance width="291"/>
  <unicode hex="003B"/>
  <outline>
    <contour>
      <point x="76" y="360" type="curve" smooth="yes"/>
      <point x="76" y="410.011"/>
      <point x="115.533" y="451"/>
      <point x="166" y="451" type="curve" smooth="yes"/>
      <point x="216.467" y="451"/>
      <point x="256" y="410.011"/>
      <point x="256" y="360" type="curve" smooth="yes"/>
      <point x="256" y="309.8"/>
      <point x="216.2" y="270"/>
      <point x="166" y="270" type="curve" smooth="yes"/>
      <point x="115.8" y="270"/>
      <point x="76" y="309.8"/>
    </contour>
    <contour>
      <point x="188.787" y="-38" type="line"/>
      <point x="30.9107" y="-38" type="line"/>
      <point x="75.2133" y="144" type="line"/>
      <point x="233.089" y="144" type="line"/>
    </contour>
  </outline>
</glyph>
<glyph name="equal" format="1">
  <advance width="418"/>
  <unicode hex="003D"/>
  <outline>
    <contour>
      <point x="383" y="273" type="line"/>
      <point x="383" y="116" type="line"/>
      <point x="35" y="116" type="line"/>
      <point x="35" y="273" type="line"/>
    </contour>
    <contour>
      <point x="383" y="467" type="line"/>
      <point x="383" y="310" type="line"/>
      <point x="35" y="310" type="line"/>
      <point x="35" y="467" type="line"/>
    </contour>
  </outline>
</glyph>
<glyph name="greater" format="1">
  <advance width="414"/>
  <unicode hex="003E"/>
  <outline>
    <contour>
      <point x="15" y="524.332" type="line"/>
      <point x="399" y="331.247" type="line"/>
      <point x="399" y="248.776" type="line"/>
      <point x="15" y="54.6067" type="line"/>
      <point x="15" y="215.365" type="line"/>
      <point x="170.476" y="291.337" type="line"/>
      <point x="15" y="360.241" type="line"/>
    </contour>
  </outline>
</glyph>
<glyph name="question" format="1">
  <advance width="460"/>
  <unicode hex="003F"/>
  <outline>
    <contour>
      <point x="107" y="53" type="curve" smooth="yes"/>
      <point x="107" y="103.011"/>
      <point x="146.533" y="144"/>
      <point x="197" y="144" type="curve" smooth="yes"/>
      <point x="247.278" y="144"/>
      <point x="288" y="103.279"/>
      <point x="288" y="53" type="curve" smooth="yes"/>
      <point x="288" y="2.5329"/>
      <point x="247.011" y="-37"/>
      <point x="197" y="-37" type="curve" smooth="yes"/>
      <point x="146.8" y="-37"/>
      <point x="107" y="2.80006"/>
    </contour>
    <contour>
      <point x="113.433" y="502.91" type="line"/>
      <point x="10.1098" y="610.013" type="line"/>
      <point x="18.2268" y="620.295" type="line" smooth="yes"/>
      <point x="49.2172" y="659.549"/>
      <point x="104.13" y="718"/>
      <point x="218" y="718" type="curve" smooth="yes"/>
      <point x="353.973" y="718"/>
      <point x="440.77" y="627.634"/>
      <point x="445" y="491.233" type="curve"/>
      <point x="445" y="481" type="line" smooth="yes"/>
      <point x="445" y="310.706"/>
      <point x="319.052" y="271.049"/>
      <point x="278" y="263.082" type="curve"/>
      <point x="278" y="151" type="line"/>
      <point x="119" y="151" type="line"/>
      <point x="119" y="400.746" type="line"/>
      <point x="133.744" y="400.998" type="line" smooth="yes"/>
      <point x="251.544" y="403.011"/>
      <point x="287" y="412.065"/>
      <point x="287" y="493" type="curve" smooth="yes"/>
      <point x="287" y="534.537"/>
      <point x="251.446" y="560"/>
      <point x="210" y="560" type="curve" smooth="yes"/>
      <point x="172.127" y="560"/>
      <point x="142.531" y="541.708"/>
      <point x="124" y="517" type="curve" smooth="yes"/>
    </contour>
  </outline>
</glyph>
<glyph name="at" format="1">
  <advance width="803"/>
  <unicode hex="0040"/>
  <outline>
    <contour>
      <point x="618.259" y="507.051" type="curve"/>
      <point x="566.504" y="304.172" type="line"/>
      <point x="563.582" y="293.459"/>
      <point x="560" y="277.394"/>
      <point x="560" y="266" type="curve" smooth="yes"/>
      <point x="560" y="260.147"/>
      <point x="560.777" y="256.359"/>
      <point x="561.211" y="255.118" type="curve"/>
      <point x="561.922" y="255.02"/>
      <point x="562.224" y="255"/>
      <point x="563" y="255" type="curve" smooth="yes"/>
      <point x="587.028" y="255"/>
      <point x="651" y="285.033"/>
      <point x="651" y="412" type="curve" smooth="yes"/>
      <point x="651" y="448.831"/>
      <point x="638.463" y="480.705"/>
    </contour>
    <contour>
      <point x="608.157" y="519" type="line"/>
      <point x="568.08" y="562.054"/>
      <point x="505.706" y="587"/>
      <point x="451" y="587" type="curve" smooth="yes"/>
      <point x="290.751" y="587"/>
      <point x="151" y="471.299"/>
      <point x="151" y="312" type="curve" smooth="yes"/>
      <point x="151" y="130.031"/>
      <point x="267.38" y="37"/>
      <point x="414" y="37" type="curve" smooth="yes"/>
      <point x="498.082" y="37"/>
      <point x="580.866" y="61.0162"/>
      <point x="658.398" y="115.288" type="curve" smooth="yes"/>
      <point x="672.095" y="124.876" type="line"/>
      <point x="735.666" y="9.1768" type="line"/>
      <point x="727.422" y="1.21213" type="line" smooth="yes"/>
      <point x="664.321" y="-59.7504"/>
      <point x="541.238" y="-102"/>
      <point x="423" y="-102" type="curve" smooth="yes"/>
      <point x="188.55" y="-102"/>
      <point x="1" y="38.1812"/>
      <point x="1" y="309" type="curve" smooth="yes"/>
      <point x="1" y="541.487"/>
      <point x="183.377" y="730"/>
      <point x="448" y="730" type="curve" smooth="yes"/>
      <point x="615.189" y="730"/>
      <point x="801" y="622.844"/>
      <point x="801" y="412" type="curve" smooth="yes"/>
      <point x="801" y="193.232"/>
      <point x="661.669" y="101"/>
      <point x="532" y="101" type="curve" smooth="yes"/>
      <point x="498.024" y="101"/>
      <point x="469.182" y="115.471"/>
      <point x="451.357" y="135.731" type="curve"/>
      <point x="429.829" y="115.556"/>
      <point x="395.876" y="101"/>
      <point x="344" y="101" type="curve" smooth="yes"/>
      <point x="256.991" y="101"/>
      <point x="190" y="187.45"/>
      <point x="190" y="289" type="curve" smooth="yes"/>
      <point x="190" y="452.934"/>
      <point x="319.284" y="534"/>
      <point x="409" y="534" type="curve" smooth="yes"/>
      <point x="456.497" y="534"/>
      <point x="485.263" y="519.496"/>
      <point x="502.691" y="505.133" type="curve"/>
      <point x="506.8" y="519" type="line"/>
    </contour>
  </outline>
</glyph>
<glyph name="A" format="1">
  <advance width="576"/>
  <unicode hex="0041"/>
  <outline>
    <contour>
      <point x="26" y="0" type="line"/>
      <point x="161.649" y="612" type="line"/>
      <point x="201.915" y="612" type="line"/>
      <point x="276.628" y="316.969" type="line"/>
      <point x="194.765" y="0" type="line"/>
    </contour>
    <contour>
      <point x="325.061" y="242.589" type="line"/>
      <point x="200.975" y="699" type="line"/>
      <point x="399.795" y="699" type="line"/>
      <point x="557.275" y="-0" type="line"/>
      <point x="389.809" y="0" type="line"/>
      <point x="366.173" y="81.502" type="line"/>
      <point x="247.132" y="81.502" type="line"/>
      <point x="290.293" y="242.589" type="line"/>
    </contour>
  </outline>
</glyph>
<glyph name="C" format="1">
  <advance width="554"/>
  <unicode hex="0043"/>
  <outline>
    <contour>
      <point x="316.957" y="534.582" type="curve" smooth="yes"/>
      <point x="304.019" y="537.699" type="line"/>
      <point x="304.019" y="705" type="line"/>
      <point x="321.885" y="705" type="line" smooth="yes"/>
      <point x="429.015" y="705"/>
      <point x="528" y="605.608"/>
      <point x="528" y="501" type="curve" smooth="yes"/>
      <point x="528" y="489.411" type="line"/>
      <point x="360" y="445.585" type="line"/>
      <point x="360" y="480" type="line" smooth="yes"/>
      <point x="360" y="494.187"/>
      <point x="359.717" y="502.568"/>
      <point x="355.472" y="511.125" type="curve"/>
      <point x="348.122" y="525.317"/>
      <point x="316.957" y="534.582"/>
    </contour>
    <contour>
      <point x="304.019" y="163.003" type="line"/>
      <point x="317.968" y="165.635" type="line" smooth="yes"/>
      <point x="318.104" y="165.66"/>
      <point x="348.368" y="173.159"/>
      <point x="355.472" y="186.875" type="curve"/>
      <point x="359.717" y="195.432"/>
      <point x="360" y="203.813"/>
      <point x="360" y="218" type="curve" smooth="yes"/>
      <point x="360" y="249.01" type="line"/>
      <point x="528" y="208.836" type="line"/>
      <point x="528" y="197" type="line" smooth="yes"/>
      <point x="528" y="82.1055"/>
      <point x="428.085" y="-5"/>
      <point x="321.885" y="-5" type="curve" smooth="yes"/>
      <point x="304.019" y="-5" type="line"/>
    </contour>
    <contour>
      <point x="257.567" y="705" type="curve" smooth="yes"/>
      <point x="275.433" y="705" type="line"/>
      <point x="275.433" y="541.242" type="line"/>
      <point x="257.955" y="540.936" type="line" smooth="yes"/>
      <point x="219.47" y="540.262"/>
      <point x="210" y="515.974"/>
      <point x="208.732" y="510.571" type="curve"/>
      <point x="208.732" y="188.471" type="line"/>
      <point x="210.184" y="182.289"/>
      <point x="220.222" y="159.067"/>
      <point x="257.567" y="159.067" type="curve" smooth="yes"/>
      <point x="275.433" y="159.067" type="line"/>
      <point x="275.433" y="-5" type="line"/>
      <point x="257.567" y="-5" type="line" smooth="yes"/>
      <point x="90.2734" y="-5"/>
      <point x="32" y="124.627"/>
      <point x="32" y="187.852" type="curve" smooth="yes"/>
      <point x="32" y="511.189" type="line" smooth="yes"/>
      <point x="32" y="574.344"/>
      <point x="90.1895" y="705"/>
    </contour>
  </outline>
</glyph>
<glyph name="E" format="1">
  <advance width="452"/>
  <unicode hex="0045"/>
  <outline>
    <contour>
      <point x="203" y="171" type="line"/>
      <point x="426" y="171" type="line"/>
      <point x="426" y="0" type="line"/>
      <point x="32" y="0" type="line"/>
      <point x="32" y="700" type="line"/>
      <point x="426" y="700" type="line"/>
      <point x="426" y="530" type="line"/>
      <point x="203" y="530" type="line"/>
      <point x="203" y="433" type="line"/>
      <point x="332" y="433" type="line"/>
      <point x="332" y="262" type="line"/>
      <point x="203" y="262" type="line"/>
    </contour>
  </outline>
</glyph>
<glyph name="F" format="1">
  <advance width="482"/>
  <unicode hex="0046"/>
  <outline>
    <contour>
      <point x="209.917" y="433" type="line"/>
      <point x="362" y="433" type="line"/>
      <point x="362" y="262" type="line"/>
      <point x="209.917" y="262" type="line"/>
      <point x="209.917" y="1" type="line"/>
      <point x="32" y="1" type="line"/>
      <point x="32" y="700" type="line"/>
      <point x="456" y="700" type="line"/>
      <point x="456" y="530" type="line"/>
      <point x="209.917" y="530" type="line"/>
    </contour>
  </outline>
</glyph>
<glyph name="H" format="1">
  <advance width="518"/>
  <unicode hex="0048"/>
  <outline>
    <contour>
      <point x="203.556" y="432.466" type="line"/>
      <point x="248.667" y="432.466" type="line"/>
      <point x="248.667" y="271.37" type="line"/>
      <point x="203.556" y="271.37" type="line"/>
      <point x="203.556" y="0" type="line"/>
      <point x="32" y="0" type="line"/>
      <point x="32" y="700" type="line"/>
      <point x="203.556" y="700" type="line"/>
    </contour>
    <contour>
      <point x="315" y="432.466" type="line"/>
      <point x="315" y="700" type="line"/>
      <point x="486" y="700" type="line"/>
      <point x="486" y="0" type="line"/>
      <point x="315" y="0" type="line"/>
      <point x="315" y="271.37" type="line"/>
      <point x="286" y="271.37" type="line"/>
      <point x="286" y="432.466" type="line"/>
    </contour>
  </outline>
</glyph>
<glyph name="I" format="1">
  <advance width="239"/>
  <unicode hex="0049"/>
  <outline>
    <contour>
      <point x="34" y="0" type="line"/>
      <point x="34" y="700" type="line"/>
      <point x="205" y="700" type="line"/>
      <point x="205" y="0" type="line"/>
    </contour>
  </outline>
</glyph>
<glyph name="K" format="1">
  <advance width="535"/>
  <unicode hex="004B"/>
  <outline>
    <contour>
      <point x="213.831" y="341.161" type="line"/>
      <point x="347.818" y="700" type="line"/>
      <point x="518.069" y="700" type="line"/>
      <point x="407.698" y="341.558" type="line"/>
      <point x="522.6" y="-0" type="line"/>
      <point x="353.139" y="0" type="line"/>
    </contour>
    <contour>
      <point x="26" y="0" type="line"/>
      <point x="26" y="700" type="line"/>
      <point x="202.967" y="700" type="line"/>
      <point x="202.764" y="0" type="line"/>
    </contour>
  </outline>
</glyph>
<glyph name="L" format="1">
  <advance width="488"/>
  <unicode hex="004C"/>
  <outline>
    <contour>
      <point x="203.333" y="169" type="line"/>
      <point x="462" y="169" type="line"/>
      <point x="462" y="0" type="line"/>
      <point x="26" y="0" type="line"/>
      <point x="26" y="700" type="line"/>
      <point x="203.333" y="700" type="line"/>
    </contour>
  </outline>
</glyph>
<glyph name="M" format="1">
  <advance width="766"/>
  <unicode hex="004D"/>
  <outline>
    <contour>
      <point x="210.693" y="0" type="line"/>
      <point x="32" y="0" type="line"/>
      <point x="32" y="474" type="line"/>
      <point x="66.002" y="474" type="line"/>
      <point x="210.693" y="144.998" type="line"/>
    </contour>
    <contour>
      <point x="32" y="594.524" type="line"/>
      <point x="32" y="700" type="line"/>
      <point x="167.038" y="700" type="line"/>
      <point x="378.499" y="278.2" type="line"/>
      <point x="468.996" y="485.205" type="line"/>
      <point x="506.857" y="485.205" type="line"/>
      <point x="531.519" y="156.13" type="line"/>
      <point x="436.755" y="-0" type="line"/>
      <point x="319.995" y="0" type="line"/>
    </contour>
    <contour>
      <point x="563" y="0" type="line"/>
      <point x="533" y="700" type="line"/>
      <point x="704" y="700" type="line"/>
      <point x="734" y="0" type="line"/>
    </contour>
  </outline>
</glyph>
<glyph name="N" format="1">
  <advance width="569"/>
  <unicode hex="004E"/>
  <outline>
    <contour>
      <point x="206.694" y="0" type="line"/>
      <point x="32" y="0" type="line"/>
      <point x="32" y="522" type="line"/>
      <point x="63.3389" y="522" type="line"/>
      <point x="206.694" y="297.281" type="line"/>
    </contour>
    <contour>
      <point x="366" y="700" type="line"/>
      <point x="537" y="700" type="line"/>
      <point x="537" y="254" type="line"/>
      <point x="505.661" y="254" type="line"/>
      <point x="366" y="478.719" type="line"/>
    </contour>
    <contour>
      <point x="32" y="593.291" type="line"/>
      <point x="32" y="700" type="line"/>
      <point x="170.347" y="700" type="line"/>
      <point x="537" y="179.578" type="line"/>
      <point x="537" y="0" type="line"/>
      <point x="446.663" y="0" type="line"/>
    </contour>
  </outline>
</glyph>
<glyph name="O" format="1">
  <advance width="568"/>
  <unicode hex="004F"/>
  <outline>
    <contour>
      <point x="271.361" y="-5" type="line"/>
      <point x="253.651" y="-5" type="line" smooth="yes"/>
      <point x="176.343" y="-5"/>
      <point x="30" y="52.2363"/>
      <point x="30" y="201.284" type="curve" smooth="yes"/>
      <point x="30" y="516.946" type="line" smooth="yes"/>
      <point x="30" y="581.412"/>
      <point x="99.8633" y="705"/>
      <point x="254.831" y="705" type="curve" smooth="yes"/>
      <point x="272.542" y="705" type="line"/>
      <point x="272.542" y="543.337" type="line"/>
      <point x="255.216" y="543.035" type="line" smooth="yes"/>
      <point x="218.672" y="542.397"/>
      <point x="207.518" y="510.46"/>
      <point x="206.422" y="503.743" type="curve"/>
      <point x="206.422" y="207.729" type="line" smooth="yes"/>
      <point x="206.422" y="178.947"/>
      <point x="244.456" y="168.447"/>
      <point x="254.437" y="167" type="curve"/>
      <point x="271.361" y="167" type="line"/>
    </contour>
    <contour>
      <point x="318.59" y="-5" type="curve" smooth="yes"/>
      <point x="300.88" y="-5" type="line"/>
      <point x="300.88" y="167" type="line"/>
      <point x="317.804" y="167" type="line"/>
      <point x="328.787" y="168.583"/>
      <point x="366.232" y="179.526"/>
      <point x="367" y="207.883" type="curve"/>
      <point x="367" y="503.743" type="line"/>
      <point x="365.754" y="511.382"/>
      <point x="354.269" y="542.406"/>
      <point x="318.205" y="543.035" type="curve" smooth="yes"/>
      <point x="300.88" y="543.337" type="line"/>
      <point x="300.88" y="705" type="line"/>
      <point x="318.59" y="705" type="line" smooth="yes"/>
      <point x="467.181" y="705"/>
      <point x="538" y="580.523"/>
      <point x="538" y="516.946" type="curve" smooth="yes"/>
      <point x="538" y="201.284" type="line" smooth="yes"/>
      <point x="538" y="52.1641"/>
      <point x="391.395" y="-5"/>
    </contour>
  </outline>
</glyph>
<glyph name="P" format="1">
  <advance width="564"/>
  <unicode hex="0050"/>
  <outline>
    <contour>
      <point x="251" y="303" type="line"/>
      <point x="251" y="472" type="line"/>
      <point x="313.348" y="472" type="line" smooth="yes"/>
      <point x="323.342" y="472"/>
      <point x="365" y="471.746"/>
      <point x="365" y="500.703" type="curve" smooth="yes"/>
      <point x="365" y="531.075"/>
      <point x="324.938" y="531"/>
      <point x="313.348" y="531" type="curve" smooth="yes"/>
      <point x="251" y="531" type="line"/>
      <point x="251" y="700" type="line"/>
      <point x="266" y="700" type="line" smooth="yes"/>
      <point x="483.198" y="700"/>
      <point x="538" y="620.976"/>
      <point x="538" y="504.391" type="curve" smooth="yes"/>
      <point x="538" y="358.221"/>
      <point x="457.388" y="303"/>
      <point x="266" y="303" type="curve" smooth="yes"/>
    </contour>
    <contour>
      <point x="26" y="0" type="line"/>
      <point x="26" y="700" type="line"/>
      <point x="213.667" y="700" type="line"/>
      <point x="213.667" y="0" type="line"/>
    </contour>
  </outline>
</glyph>
<glyph name="R" format="1">
  <advance width="585"/>
  <unicode hex="0052"/>
  <outline>
    <contour>
      <point x="248.176" y="276.475" type="line"/>
      <point x="257" y="426" type="line"/>
      <point x="289.643" y="426" type="line" smooth="yes"/>
      <point x="360.743" y="426"/>
      <point x="386" y="451.141"/>
      <point x="386" y="480.619" type="curve" smooth="yes"/>
      <point x="386" y="514.753"/>
      <point x="347.291" y="537"/>
      <point x="289.643" y="537" type="curve" smooth="yes"/>
      <point x="257" y="537" type="line"/>
      <point x="257" y="700" type="line"/>
      <point x="272" y="700" type="line" smooth="yes"/>
      <point x="458.888" y="700"/>
      <point x="543" y="612.817"/>
      <point x="543" y="490" type="curve" smooth="yes"/>
      <point x="543" y="429.089"/>
      <point x="524.515" y="381.771"/>
      <point x="484.931" y="350.713" type="curve"/>
      <point x="518.073" y="317.427"/>
      <point x="538.176" y="267.972"/>
      <point x="541.952" y="223.612" type="curve"/>
      <point x="560.221" y="-0" type="line"/>
      <point x="404.211" y="0" type="line"/>
      <point x="388.056" y="185.188" type="line"/>
      <point x="379.601" y="257.709"/>
      <point x="357.258" y="275.409"/>
      <point x="268.765" y="276.273" type="curve" smooth="yes"/>
    </contour>
    <contour>
      <point x="32" y="0" type="line"/>
      <point x="32" y="700" type="line"/>
      <point x="219.667" y="700" type="line"/>
      <point x="214.765" y="0" type="line"/>
    </contour>
  </outline>
</glyph>
<glyph name="T" format="1">
  <advance width="575"/>
  <unicode hex="0054"/>
  <outline>
    <contour>
      <point x="26" y="700" type="line"/>
      <point x="549" y="700" type="line"/>
      <point x="549" y="532" type="line"/>
      <point x="389.943" y="532" type="line"/>
      <point x="389.943" y="0" type="line"/>
      <point x="202" y="0" type="line"/>
      <point x="202" y="532" type="line"/>
      <point x="26" y="532" type="line"/>
    </contour>
  </outline>
</glyph>
<glyph name="W" format="1">
  <advance width="815"/>
  <unicode hex="0057"/>
  <outline>
    <contour>
      <point x="237.7" y="0" type="line"/>
      <point x="26" y="700" type="line"/>
      <point x="201.22" y="700" type="line"/>
      <point x="375.524" y="165.632" type="line"/>
      <point x="306.823" y="-0" type="line"/>
    </contour>
    <contour>
      <point x="480.7" y="0" type="line"/>
      <point x="269" y="700" type="line"/>
      <point x="444.22" y="700" type="line"/>
      <point x="606.671" y="165.632" type="line"/>
      <point x="549.823" y="-0" type="line"/>
    </contour>
    <contour>
      <point x="623.762" y="700" type="line"/>
      <point x="799.129" y="700" type="line"/>
      <point x="637.129" y="260" type="line"/>
      <point x="604.75" y="260" type="line"/>
      <point x="552.405" y="499.008" type="line"/>
    </contour>
  </outline>
</glyph>
<glyph name="Y" format="1">
  <advance width="539"/>
  <unicode hex="0059"/>
  <outline>
    <contour>
      <point x="162.015" y="253.968" type="line"/>
      <point x="26" y="700" type="line"/>
      <point x="204.273" y="700" type="line"/>
      <point x="368.015" y="259.035" type="line"/>
      <point x="368.015" y="0" type="line"/>
      <point x="162.015" y="0" type="line"/>
    </contour>
    <contour>
      <point x="373.66" y="301" type="line"/>
      <point x="291.859" y="550.049" type="line"/>
      <point x="346.734" y="700" type="line"/>
      <point x="523.086" y="700" type="line"/>
      <point x="405.225" y="301" type="line"/>
    </contour>
  </outline>
</glyph>
<glyph name="Z" format="1">
  <advance width="448"/>
  <unicode hex="005A"/>
  <outline>
    <contour>
      <point x="422" y="552.845" type="line"/>
      <point x="221.297" y="174" type="line"/>
      <point x="422" y="174" type="line"/>
      <point x="422" y="0" type="line"/>
      <point x="26" y="0" type="line"/>
      <point x="26" y="151.001" type="line"/>
      <point x="226.703" y="530" type="line"/>
      <point x="26" y="530" type="line"/>
      <point x="26" y="700" type="line"/>
      <point x="422" y="700" type="line"/>
    </contour>
  </outline>
</glyph>
<glyph name="bracketleft" format="1">
  <advance width="258"/>
  <unicode hex="005B"/>
  <outline>
    <contour>
      <point x="259" y="754" type="line"/>
      <point x="259" y="614" type="line"/>
      <point x="197.919" y="614" type="line"/>
      <point x="195.081" y="89" type="line"/>
      <point x="259" y="89" type="line"/>
      <point x="259" y="-51" type="line"/>
      <point x="35" y="-51" type="line"/>
      <point x="35" y="754" type="line"/>
    </contour>
  </outline>
</glyph>
<glyph name="backslash" format="1">
  <advance width="402"/>
  <unicode hex="005C"/>
  <outline>
    <contour>
      <point x="369.967" y="-38" type="line"/>
      <point x="212.122" y="-38" type="line"/>
      <point x="31.058" y="731" type="line"/>
      <point x="187.863" y="731" type="line"/>
    </contour>
  </outline>
</glyph>
<glyph name="asciicircum" format="1">
  <advance width="374"/>
  <unicode hex="005E"/>
  <outline>
    <contour>
      <point x="2.65609" y="445" type="line"/>
      <point x="166.757" y="771" type="line"/>
      <point x="273.243" y="771" type="line"/>
      <point x="437.344" y="445" type="line"/>
      <point x="280.7" y="445" type="line"/>
      <point x="219.095" y="569.078" type="line"/>
      <point x="158.358" y="445" type="line"/>
    </contour>
  </outline>
</glyph>
<glyph name="c" format="1">
  <advance width="478"/>
  <unicode hex="0063"/>
  <outline>
    <contour>
      <point x="297.179" y="362.102" type="line"/>
      <point x="296.874" y="362.955" type="line" smooth="yes"/>
      <point x="296.38" y="364.338"/>
      <point x="287.297" y="368.408"/>
      <point x="283.105" y="369" type="curve"/>
      <point x="263" y="369" type="line"/>
      <point x="263" y="516" type="line"/>
      <point x="284" y="516" type="line" smooth="yes"/>
      <point x="365.5" y="516"/>
      <point x="441" y="441.877"/>
      <point x="441" y="361" type="curve" smooth="yes"/>
      <point x="441" y="346.638" type="line"/>
      <point x="300" y="293.286" type="line"/>
      <point x="300" y="345" type="line" smooth="yes"/>
      <point x="300" y="355.456"/>
      <point x="300.235" y="355.989"/>
      <point x="297.584" y="361.292" type="curve" smooth="yes"/>
    </contour>
    <contour>
      <point x="295" y="-1" type="curve" smooth="yes"/>
      <point x="273" y="-1" type="line"/>
      <point x="273" y="146" type="line"/>
      <point x="293.423" y="146" type="line"/>
      <point x="298.501" y="146.671"/>
      <point x="307.597" y="151.335"/>
      <point x="308" y="152.385" type="curve" smooth="yes"/>
      <point x="308.26" y="153.061" type="line"/>
      <point x="308.584" y="153.708" type="line" smooth="yes"/>
      <point x="311.029" y="158.6"/>
      <point x="311" y="160.589"/>
      <point x="311" y="171" type="curve" smooth="yes"/>
      <point x="311" y="222.714" type="line"/>
      <point x="452" y="169.362" type="line"/>
      <point x="452" y="155" type="line" smooth="yes"/>
      <point x="452" y="74.2256"/>
      <point x="376.642" y="-1"/>
    </contour>
    <contour>
      <point x="30" y="147.429" type="curve" smooth="yes"/>
      <point x="30" y="370.623" type="line" smooth="yes"/>
      <point x="31.1621" y="418.938"/>
      <point x="84.8281" y="516"/>
      <point x="225.5" y="516" type="curve" smooth="yes"/>
      <point x="251" y="516" type="line"/>
      <point x="251" y="380.923" type="line"/>
      <point x="225.5" y="380.923" type="line" smooth="yes"/>
      <point x="199.064" y="380.923"/>
      <point x="195.304" y="372.785"/>
      <point x="194" y="370.405" type="curve"/>
      <point x="194" y="156.544" type="line"/>
      <point x="195.339" y="154.424"/>
      <point x="200.5" y="145"/>
      <point x="239" y="145" type="curve" smooth="yes"/>
      <point x="240.485" y="145" type="line"/>
      <point x="259" y="141.297" type="line"/>
      <point x="259" y="0" type="line"/>
      <point x="239" y="0" type="line" smooth="yes"/>
      <point x="84.415" y="0"/>
      <point x="30" y="98.7363"/>
    </contour>
  </outline>
</glyph>
<glyph name="d" format="1">
  <advance width="504"/>
  <unicode hex="0064"/>
  <outline>
    <contour>
      <point x="30" y="370.619" type="line"/>
      <point x="31.1504" y="419.543"/>
      <point x="83.5029" y="516"/>
      <point x="207.818" y="516" type="curve" smooth="yes"/>
      <point x="265.091" y="516" type="line"/>
      <point x="265.091" y="368" type="line"/>
      <point x="208.171" y="368" type="line"/>
      <point x="191.121" y="367.563"/>
      <point x="187.368" y="360.518"/>
      <point x="186.182" y="357.996" type="curve"/>
      <point x="196.367" y="158.208" type="line"/>
      <point x="198.778" y="154.65"/>
      <point x="204.323" y="148"/>
      <point x="227" y="148" type="curve" smooth="yes"/>
      <point x="270" y="148" type="line"/>
      <point x="270" y="0" type="line"/>
      <point x="227" y="0" type="line" smooth="yes"/>
      <point x="82.498" y="0"/>
      <point x="30" y="99.4209"/>
      <point x="30" y="147.429" type="curve" smooth="yes"/>
    </contour>
    <contour>
      <point x="444" y="698" type="line"/>
      <point x="474" y="0" type="line"/>
      <point x="318" y="0" type="line"/>
      <point x="288" y="698" type="line"/>
    </contour>
  </outline>
</glyph>
<glyph name="f" format="1">
  <advance width="334"/>
  <unicode hex="0066"/>
  <outline>
    <contour>
      <point x="89" y="516" type="line"/>
      <point x="89" y="537" type="line" smooth="yes"/>
      <point x="89" y="589.069"/>
      <point x="144.465" y="694.898"/>
      <point x="257.927" y="696" type="curve"/>
      <point x="337.855" y="696" type="line"/>
      <point x="303.933" y="549" type="line"/>
      <point x="259.268" y="549" type="line"/>
      <point x="244.47" y="548.472"/>
      <point x="241.668" y="538.898"/>
      <point x="241" y="536.125" type="curve"/>
      <point x="241" y="515.229" type="line"/>
      <point x="307" y="516.229" type="line"/>
      <point x="307" y="370" type="line"/>
      <point x="241" y="370" type="line"/>
      <point x="241" y="0" type="line"/>
      <point x="89" y="0" type="line"/>
      <point x="89" y="370" type="line"/>
      <point x="26" y="370" type="line"/>
      <point x="26" y="516" type="line"/>
    </contour>
  </outline>
</glyph>
<glyph name="g" format="1">
  <advance width="475"/>
  <unicode hex="0067"/>
  <outline>
    <contour>
      <point x="453.212" y="-25" type="line" smooth="yes"/>
      <point x="453.212" y="-75.1836"/>
      <point x="398.544" y="-179.9"/>
      <point x="285.284" y="-181" type="curve" smooth="yes"/>
      <point x="26" y="-181" type="line"/>
      <point x="61.5" y="-39" type="line"/>
      <point x="282.97" y="-39" type="line"/>
      <point x="300.431" y="-38.4365"/>
      <point x="305.086" y="-27.2295"/>
      <point x="306.212" y="-23.7139" type="curve"/>
      <point x="306.212" y="0.133789" type="line"/>
      <point x="297.433" y="-0.804688"/>
      <point x="291.388" y="-1"/>
      <point x="283.212" y="-1" type="curve" smooth="yes"/>
      <point x="265.212" y="-1" type="line"/>
      <point x="265.212" y="128.604" type="line"/>
      <point x="282.97" y="128.604" type="line"/>
      <point x="300.129" y="129.116"/>
      <point x="304.951" y="139.812"/>
      <point x="306.212" y="143.611" type="curve"/>
      <point x="306.212" y="358.914" type="line"/>
      <point x="304.746" y="363.317"/>
      <point x="300.233" y="373"/>
      <point x="283.212" y="373" type="curve" smooth="yes"/>
      <point x="265.212" y="373" type="line"/>
      <point x="265.212" y="516" type="line"/>
      <point x="283.212" y="516" type="line" smooth="yes"/>
      <point x="290.622" y="516"/>
      <point x="300.672" y="515.101"/>
      <point x="306.212" y="514.318" type="curve"/>
      <point x="306.212" y="516" type="line"/>
      <point x="453.212" y="516" type="line"/>
    </contour>
    <contour>
      <point x="39.2119" y="371.553" type="line"/>
      <point x="40.375" y="419.919"/>
      <point x="94.0791" y="516"/>
      <point x="229.772" y="516" type="curve" smooth="yes"/>
      <point x="254.439" y="516" type="line"/>
      <point x="254.439" y="373" type="line"/>
      <point x="229.772" y="373" type="line" smooth="yes"/>
      <point x="203.95" y="373"/>
      <point x="198.252" y="363.092"/>
      <point x="196.883" y="360.337" type="curve"/>
      <point x="196.883" y="154.864" type="line"/>
      <point x="199.13" y="150.943"/>
      <point x="206.174" y="142"/>
      <point x="229.772" y="142" type="curve" smooth="yes"/>
      <point x="254.439" y="142" type="line"/>
      <point x="254.439" y="-1" type="line"/>
      <point x="229.772" y="-1" type="line" smooth="yes"/>
      <point x="92.9229" y="-1"/>
      <point x="39.2119" y="98.1465"/>
      <point x="39.2119" y="145.499" type="curve" smooth="yes"/>
    </contour>
  </outline>
</glyph>
<glyph name="h" format="1">
  <advance width="481"/>
  <unicode hex="0068"/>
  <outline>
    <contour>
      <point x="175" y="349.935" type="curve"/>
      <point x="175" y="1" type="line"/>
      <point x="30" y="1" type="line"/>
      <point x="30" y="698" type="line"/>
      <point x="174" y="698" type="line"/>
      <point x="174" y="508.596" type="line"/>
      <point x="185.962" y="510.328"/>
      <point x="195.331" y="511"/>
      <point x="209.091" y="511" type="curve" smooth="yes"/>
      <point x="233.227" y="511" type="line"/>
      <point x="233.227" y="369" type="line"/>
      <point x="210.07" y="369" type="line"/>
      <point x="185.968" y="366.85"/>
      <point x="177.21" y="354.53"/>
    </contour>
    <contour>
      <point x="253.341" y="369" type="line"/>
      <point x="253.341" y="511" type="line"/>
      <point x="277.892" y="511" type="line"/>
      <point x="390.409" y="506.945"/>
      <point x="455" y="442.065"/>
      <point x="455" y="367.444" type="curve" smooth="yes"/>
      <point x="455" y="1" type="line"/>
      <point x="311" y="1" type="line"/>
      <point x="311" y="350.862" type="line"/>
      <point x="309.719" y="355.131"/>
      <point x="303.639" y="366.887"/>
      <point x="276.58" y="369" type="curve"/>
    </contour>
  </outline>
</glyph>
<glyph name="j" format="1">
  <advance width="224"/>
  <unicode hex="006A"/>
  <outline>
    <contour>
      <point x="192.855" y="516" type="line"/>
      <point x="192.855" y="-23" type="line" smooth="yes"/>
      <point x="192.855" y="-76.8525"/>
      <point x="138.328" y="-181"/>
      <point x="25.8555" y="-181" type="curve" smooth="yes"/>
      <point x="-50" y="-181" type="line"/>
      <point x="-16.0771" y="-34" type="line"/>
      <point x="22.5879" y="-34" type="line"/>
      <point x="36.835" y="-33.4912"/>
      <point x="39.8848" y="-24.8438"/>
      <point x="40.8555" y="-21.7041" type="curve"/>
      <point x="40.8555" y="516" type="line"/>
    </contour>
    <contour>
      <point x="115.855" y="702" type="curve" smooth="yes"/>
      <point x="164.457" y="702"/>
      <point x="203.855" y="661.134"/>
      <point x="203.855" y="613" type="curve" smooth="yes"/>
      <point x="203.855" y="564.475"/>
      <point x="163.905" y="526"/>
      <point x="115.855" y="526" type="curve" smooth="yes"/>
      <point x="67.8057" y="526"/>
      <point x="27.8555" y="564.475"/>
      <point x="27.8555" y="613" type="curve" smooth="yes"/>
      <point x="27.8555" y="661.134"/>
      <point x="67.2539" y="702"/>
    </contour>
  </outline>
</glyph>
<glyph name="o" format="1">
  <advance width="480"/>
  <unicode hex="006F"/>
  <outline>
    <contour>
      <point x="28" y="147.39" type="curve" smooth="yes"/>
      <point x="28" y="369.501" type="line" smooth="yes"/>
      <point x="28" y="419.163"/>
      <point x="84.2012" y="516"/>
      <point x="213.52" y="516" type="curve" smooth="yes"/>
      <point x="239.48" y="516" type="line"/>
      <point x="239.48" y="368" type="line"/>
      <point x="213.52" y="368" type="line" smooth="yes"/>
      <point x="186.561" y="368"/>
      <point x="185.087" y="356.078"/>
      <point x="185.087" y="350.391" type="curve" smooth="yes"/>
      <point x="185.087" y="166.37" type="line" smooth="yes"/>
      <point x="185.087" y="154.025"/>
      <point x="188.072" y="147"/>
      <point x="213.52" y="147" type="curve" smooth="yes"/>
      <point x="239.48" y="147" type="line"/>
      <point x="239.48" y="-1" type="line"/>
      <point x="213.52" y="-1" type="line" smooth="yes"/>
      <point x="82.8809" y="-1"/>
      <point x="28" y="98.9678"/>
    </contour>
    <contour>
      <point x="279.039" y="368" type="curve" smooth="yes"/>
      <point x="253.079" y="368" type="line"/>
      <point x="253.079" y="516" type="line"/>
      <point x="279.039" y="516" type="line" smooth="yes"/>
      <point x="397.199" y="516"/>
      <point x="452" y="418.816"/>
      <point x="452" y="369.501" type="curve" smooth="yes"/>
      <point x="452" y="147.39" type="line" smooth="yes"/>
      <point x="452" y="98.3604"/>
      <point x="398.446" y="-1"/>
      <point x="279.039" y="-1" type="curve" smooth="yes"/>
      <point x="253.079" y="-1" type="line"/>
      <point x="253.079" y="147" type="line"/>
      <point x="278.74" y="147" type="line"/>
      <point x="303.23" y="147.562"/>
      <point x="305" y="158.085"/>
      <point x="305" y="164.609" type="curve" smooth="yes"/>
      <point x="305" y="350.391" type="line" smooth="yes"/>
      <point x="305" y="361.676"/>
      <point x="304.113" y="368"/>
    </contour>
  </outline>
</glyph>
<glyph name="p" format="1">
  <advance width="512"/>
  <unicode hex="0070"/>
  <outline>
    <contour>
      <point x="486" y="145.538" type="line" smooth="yes"/>
      <point x="486" y="87.8662"/>
      <point x="428.637" y="0"/>
      <point x="277" y="0" type="curve" smooth="yes"/>
      <point x="233" y="0" type="line"/>
      <point x="233" y="148" type="line"/>
      <point x="280.656" y="148" type="line"/>
      <point x="340.713" y="148.759"/>
      <point x="336" y="156.778"/>
      <point x="336" y="156.8" type="curve" smooth="yes"/>
      <point x="306" y="358.251" type="line"/>
      <point x="305.483" y="359.342"/>
      <point x="294.697" y="368"/>
      <point x="264.818" y="368" type="curve" smooth="yes"/>
      <point x="206.165" y="368" type="line"/>
      <point x="206.165" y="516" type="line"/>
      <point x="264.818" y="516" type="line" smooth="yes"/>
      <point x="388.153" y="516"/>
      <point x="456" y="430.013"/>
      <point x="456" y="368.571" type="curve" smooth="yes"/>
    </contour>
    <contour>
      <point x="30" y="-182" type="line"/>
      <point x="30" y="516" type="line"/>
      <point x="192.438" y="516" type="line"/>
      <point x="203.75" y="-182" type="line"/>
    </contour>
  </outline>
</glyph>
<glyph name="q" format="1">
  <advance width="506"/>
  <unicode hex="0071"/>
  <outline>
    <contour>
      <point x="183.759" y="357.974" type="curve"/>
      <point x="191.254" y="157.968" type="line" smooth="yes"/>
      <point x="192.26" y="156.466"/>
      <point x="196.631" y="148.547"/>
      <point x="232.281" y="148" type="curve"/>
      <point x="279" y="148" type="line"/>
      <point x="279" y="0" type="line"/>
      <point x="235" y="0" type="line" smooth="yes"/>
      <point x="82.6641" y="0"/>
      <point x="27.168" y="94.625"/>
      <point x="26" y="145.385" type="curve"/>
      <point x="26" y="368.571" type="line" smooth="yes"/>
      <point x="26" y="417.987"/>
      <point x="80.9922" y="516"/>
      <point x="211.448" y="516" type="curve" smooth="yes"/>
      <point x="269.345" y="516" type="line"/>
      <point x="269.345" y="368" type="line"/>
      <point x="211.448" y="368" type="line" smooth="yes"/>
      <point x="187.839" y="368"/>
      <point x="184.698" y="359.917"/>
    </contour>
    <contour>
      <point x="290.714" y="516" type="line"/>
      <point x="444.979" y="516" type="line"/>
      <point x="476.021" y="-182" type="line"/>
      <point x="322.021" y="-182" type="line"/>
    </contour>
  </outline>
</glyph>
<glyph name="r" format="1">
  <advance width="346"/>
  <unicode hex="0072"/>
  <outline>
    <contour>
      <point x="36" y="0" type="line"/>
      <point x="36" y="516" type="line"/>
      <point x="190" y="516" type="line"/>
      <point x="190" y="474.993" type="line"/>
      <point x="216.867" y="496.565"/>
      <point x="255.289" y="516"/>
      <point x="299" y="516" type="curve" smooth="yes"/>
      <point x="350.867" y="516" type="line"/>
      <point x="315.966" y="373.464" type="line"/>
      <point x="304.224" y="373.298" type="line" smooth="yes"/>
      <point x="245.431" y="372.469"/>
      <point x="190" y="318.269"/>
      <point x="190" y="270.286" type="curve" smooth="yes"/>
      <point x="190" y="0" type="line"/>
    </contour>
  </outline>
</glyph>
<glyph name="s" format="1">
  <advance width="478"/>
  <unicode hex="0073"/>
  <outline>
    <contour>
      <point x="216.407" y="-5" type="line" smooth="yes"/>
      <point x="101.859" y="-5"/>
      <point x="34.7471" y="74.9697"/>
      <point x="29.5234" y="145.031" type="curve"/>
      <point x="21" y="162.078" type="line"/>
      <point x="176.134" y="190.074" type="line"/>
      <point x="176.134" y="169.932" type="line"/>
      <point x="178.265" y="158.986"/>
      <point x="197.937" y="142.313"/>
      <point x="217.928" y="140.948" type="curve" smooth="yes"/>
      <point x="220.115" y="140.799" type="line"/>
      <point x="238.375" y="135.812" type="line"/>
      <point x="238.375" y="-5" type="line"/>
    </contour>
    <contour>
      <point x="268.564" y="517" type="line" smooth="yes"/>
      <point x="381.195" y="517"/>
      <point x="455.31" y="434.351"/>
      <point x="455.31" y="361" type="curve" smooth="yes"/>
      <point x="455.31" y="346.33" type="line"/>
      <point x="308.445" y="322.241" type="line"/>
      <point x="308.445" y="342.24" type="line"/>
      <point x="304.43" y="370.863"/>
      <point x="274.003" y="374"/>
      <point x="267.391" y="374" type="curve" smooth="yes"/>
      <point x="246.122" y="374" type="line"/>
      <point x="247.605" y="517" type="line"/>
    </contour>
    <contour>
      <point x="233.375" y="517" type="line"/>
      <point x="233.375" y="376" type="line"/>
      <point x="214.33" y="376" type="line"/>
      <point x="179.553" y="372.819"/>
      <point x="181.763" y="360.851"/>
      <point x="181.763" y="349.117" type="curve" smooth="yes"/>
      <point x="181.763" y="346.276"/>
      <point x="181.041" y="327.23"/>
      <point x="349.143" y="301.589" type="curve" smooth="yes"/>
      <point x="407.43" y="291.198"/>
      <point x="464.31" y="245.493"/>
      <point x="464.31" y="161.861" type="curve" smooth="yes"/>
      <point x="464.31" y="58.2188"/>
      <point x="380.301" y="-5"/>
      <point x="273.766" y="-5" type="curve" smooth="yes"/>
      <point x="251.799" y="-5" type="line"/>
      <point x="251.799" y="131.174" type="line"/>
      <point x="273.115" y="131.174" type="line"/>
      <point x="291.789" y="132.468"/>
      <point x="317.31" y="141.077"/>
      <point x="317.31" y="158.598" type="curve" smooth="yes"/>
      <point x="317.31" y="183.631"/>
      <point x="207.644" y="190.616"/>
      <point x="126.896" y="220.479" type="curve"/>
      <point x="74.7588" y="244.629"/>
      <point x="33.3096" y="279.784"/>
      <point x="33.3096" y="364.75" type="curve" smooth="yes"/>
      <point x="33.3096" y="472.197"/>
      <point x="143.001" y="517"/>
      <point x="212.261" y="517" type="curve" smooth="yes"/>
    </contour>
  </outline>
</glyph>
<glyph name="w" format="1">
  <advance width="637"/>
  <unicode hex="0077"/>
  <outline>
    <contour>
      <point x="252.921" y="0" type="line"/>
      <point x="168.811" y="0" type="line"/>
      <point x="8" y="514.854" type="line"/>
      <point x="175.208" y="516.083" type="line"/>
      <point x="309.362" y="127.384" type="line"/>
    </contour>
    <contour>
      <point x="473.096" y="-0" type="line"/>
      <point x="386.936" y="0" type="line"/>
      <point x="189.776" y="514.854" type="line"/>
      <point x="389.101" y="516.081" type="line"/>
      <point x="514.714" y="127.564" type="line"/>
    </contour>
    <contour>
      <point x="441.371" y="378.957" type="line"/>
      <point x="481.837" y="516.089" type="line"/>
      <point x="639.506" y="514.838" type="line"/>
      <point x="531.981" y="178" type="line"/>
      <point x="501.875" y="178" type="line"/>
    </contour>
  </outline>
</glyph>
<glyph name="z" format="1">
  <advance width="378"/>
  <unicode hex="007A"/>
  <outline>
    <contour>
      <point x="352" y="514" type="line"/>
      <point x="352" y="388.517" type="line"/>
      <point x="209.115" y="139.684" type="line"/>
      <point x="352" y="138.801" type="line"/>
      <point x="352" y="0" type="line"/>
      <point x="26" y="0" type="line"/>
      <point x="26" y="124.668" type="line"/>
      <point x="172.302" y="364" type="line"/>
      <point x="26" y="364" type="line"/>
      <point x="26" y="514" type="line"/>
    </contour>
  </outline>
</glyph>
<glyph name="braceleft" format="1">
  <advance width="407"/>
  <unicode hex="007B"/>
  <outline>
    <contour>
      <point x="322" y="750" type="line"/>
      <point x="322" y="620" type="line"/>
      <point x="307" y="620" type="line" smooth="yes"/>
      <point x="254.425" y="620"/>
      <point x="255.043" y="596.151"/>
      <point x="254" y="468.939" type="curve"/>
      <point x="254" y="383" type="line" smooth="yes"/>
      <point x="254" y="365.754"/>
      <point x="241.344" y="353.223"/>
      <point x="230.953" y="346.605" type="curve"/>
      <point x="243.923" y="336.746"/>
      <point x="254" y="322.182"/>
      <point x="254" y="304" type="curve" smooth="yes"/>
      <point x="254" y="207" type="line" smooth="yes"/>
      <point x="254" y="84.4756"/>
      <point x="265.639" y="76"/>
      <point x="307" y="76" type="curve" smooth="yes"/>
      <point x="322" y="76" type="line"/>
      <point x="322" y="-53" type="line"/>
      <point x="289" y="-53" type="line" smooth="yes"/>
      <point x="195.838" y="-53"/>
      <point x="97" y="-38.3498"/>
      <point x="97" y="192" type="curve" smooth="yes"/>
      <point x="97" y="290" type="line" smooth="yes"/>
      <point x="97" y="310.433"/>
      <point x="83.1934" y="313.52"/>
      <point x="42.9986" y="334.734" type="curve" smooth="yes"/>
      <point x="14.8355" y="349.598" type="line"/>
      <point x="44.2308" y="361.846" type="line" smooth="yes"/>
      <point x="82.8079" y="377.92"/>
      <point x="96.2798" y="380.831"/>
      <point x="97" y="408.197" type="curve"/>
      <point x="97" y="504" type="line" smooth="yes"/>
      <point x="97" y="722.468"/>
      <point x="193.46" y="750"/>
      <point x="307" y="750" type="curve" smooth="yes"/>
    </contour>
  </outline>
</glyph>
<glyph name="bar" format="1">
  <advance width="205"/>
  <unicode hex="007C"/>
  <outline>
    <contour>
      <point x="35" y="769" type="line"/>
      <point x="170" y="769" type="line"/>
      <point x="170" y="-149" type="line"/>
      <point x="35" y="-149" type="line"/>
    </contour>
  </outline>
</glyph>
<glyph name="exclamdown" format="1">
  <advance width="210"/>
  <unicode hex="00A1"/>
  <outline>
    <contour>
      <point x="11" y="647" type="curve" smooth="yes"/>
      <point x="11" y="697.2"/>
      <point x="50.8001" y="737"/>
      <point x="101" y="737" type="curve" smooth="yes"/>
      <point x="151.2" y="737"/>
      <point x="191" y="697.2"/>
      <point x="191" y="647" type="curve" smooth="yes"/>
      <point x="191" y="596.989"/>
      <point x="151.467" y="556"/>
      <point x="101" y="556" type="curve" smooth="yes"/>
      <point x="50.5329" y="556"/>
      <point x="11" y="596.989"/>
    </contour>
    <contour>
      <point x="23" y="549" type="line"/>
      <point x="182" y="549" type="line"/>
      <point x="182" y="-15" type="line"/>
      <point x="23" y="-15" type="line"/>
    </contour>
  </outline>
</glyph>
<glyph name="cent" format="1">
  <advance width="494"/>
  <unicode hex="00A2"/>
  <outline>
    <contour>
      <point x="143" y="764" type="line"/>
      <point x="244" y="764" type="line"/>
      <point x="244" y="549.323" type="line"/>
      <point x="229.326" y="549.004" type="line" smooth="yes"/>
      <point x="197.014" y="548.301"/>
      <point x="189.065" y="522.987"/>
      <point x="188" y="517.356" type="curve"/>
      <point x="188" y="181.645" type="line"/>
      <point x="189.219" y="175.202"/>
      <point x="197.647" y="151"/>
      <point x="229" y="151" type="curve" smooth="yes"/>
      <point x="244" y="151" type="line"/>
      <point x="244" y="-63" type="line"/>
      <point x="143" y="-63" type="line"/>
      <point x="143" y="-3.18015" type="line"/>
      <point x="51.9902" y="36.1577"/>
      <point x="17" y="128.467"/>
      <point x="17" y="181" type="curve" smooth="yes"/>
      <point x="17" y="518" type="line" smooth="yes"/>
      <point x="17" y="571.029"/>
      <point x="53.3088" y="664.36"/>
      <point x="143" y="703.177" type="curve"/>
    </contour>
    <contour>
      <point x="268" y="764" type="line"/>
      <point x="369" y="764" type="line"/>
      <point x="369" y="696.095" type="line"/>
      <point x="432.977" y="660.717"/>
      <point x="483" y="590.75"/>
      <point x="483" y="516" type="curve" smooth="yes"/>
      <point x="483" y="504.411" type="line"/>
      <point x="315" y="460.585" type="line"/>
      <point x="315" y="495" type="line" smooth="yes"/>
      <point x="315" y="509.187"/>
      <point x="314.763" y="517.569"/>
      <point x="311.198" y="526.125" type="curve"/>
      <point x="305.027" y="540.317"/>
      <point x="278.862" y="549.582"/>
      <point x="278.862" y="549.582" type="curve" smooth="yes"/>
      <point x="268" y="552.699" type="line"/>
    </contour>
    <contour>
      <point x="279.711" y="150.635" type="line" smooth="yes"/>
      <point x="279.825" y="150.661"/>
      <point x="305.234" y="158.159"/>
      <point x="311.198" y="171.875" type="curve"/>
      <point x="314.763" y="180.431"/>
      <point x="315" y="188.813"/>
      <point x="315" y="203" type="curve" smooth="yes"/>
      <point x="315" y="234.01" type="line"/>
      <point x="483" y="193.836" type="line"/>
      <point x="483" y="182" type="line" smooth="yes"/>
      <point x="483" y="100.584"/>
      <point x="432.17" y="34.6016"/>
      <point x="369" y="1.63489" type="curve"/>
      <point x="369" y="-63" type="line"/>
      <point x="268" y="-63" type="line"/>
      <point x="268" y="148.003" type="line"/>
    </contour>
  </outline>
</glyph>
<glyph name="yen" format="1">
  <advance width="542"/>
  <unicode hex="00A5"/>
  <outline>
    <contour>
      <point x="52.6854" y="713" type="line"/>
      <point x="221.206" y="713" type="line"/>
      <point x="272.648" y="539.075" type="line"/>
      <point x="321.642" y="713" type="line"/>
      <point x="490.227" y="713" type="line"/>
      <point x="402.227" y="423" type="line"/>
      <point x="507" y="423" type="line"/>
      <point x="507" y="335" type="line"/>
      <point x="376.66" y="335" type="line"/>
      <point x="370.297" y="310" type="line"/>
      <point x="507" y="310" type="line"/>
      <point x="507" y="221" type="line"/>
      <point x="355" y="221" type="line"/>
      <point x="355" y="-15" type="line"/>
      <point x="188" y="-15" type="line"/>
      <point x="188" y="223" type="line"/>
      <point x="35" y="223" type="line"/>
      <point x="35" y="310" type="line"/>
      <point x="173.114" y="310" type="line"/>
      <point x="165.685" y="336" type="line"/>
      <point x="35" y="336" type="line"/>
      <point x="35" y="424" type="line"/>
      <point x="141.685" y="424" type="line"/>
    </contour>
  </outline>
</glyph>
<glyph name="section" format="1">
  <advance width="547"/>
  <unicode hex="00A7"/>
  <outline>
    <contour>
      <point x="359.814" y="241.61" type="curve"/>
      <point x="362.885" y="246.792"/>
      <point x="365" y="253.436"/>
      <point x="365" y="266" type="curve" smooth="yes"/>
      <point x="365" y="299.55"/>
      <point x="337.274" y="319.136"/>
      <point x="294.208" y="337.163" type="curve" smooth="yes"/>
      <point x="285" y="341.018" type="line"/>
      <point x="285" y="520.556" type="line"/>
      <point x="305.801" y="511.833" type="line" smooth="yes"/>
      <point x="336.321" y="499.034"/>
      <point x="370.638" y="487.055"/>
      <point x="400.533" y="469.972" type="curve"/>
      <point x="462.07" y="433.654"/>
      <point x="536" y="382.201"/>
      <point x="536" y="272" type="curve" smooth="yes"/>
      <point x="536" y="208.983"/>
      <point x="508.497" y="155.108"/>
      <point x="466.329" y="118.771" type="curve"/>
      <point x="471.829" y="98.7212"/>
      <point x="474" y="76.7508"/>
      <point x="474" y="52" type="curve" smooth="yes"/>
      <point x="474" y="-97.0734"/>
      <point x="355.845" y="-151"/>
      <point x="282" y="-151" type="curve" smooth="yes"/>
      <point x="155" y="-151" type="line"/>
      <point x="155" y="11" type="line"/>
      <point x="274" y="11" type="line" smooth="yes"/>
      <point x="299.741" y="11"/>
      <point x="313" y="25.2938"/>
      <point x="313" y="47" type="curve" smooth="yes"/>
      <point x="313" y="62.1215"/>
      <point x="305.739" y="73.7286"/>
      <point x="290.888" y="85.0846" type="curve" smooth="yes"/>
      <point x="285" y="89.5874" type="line"/>
      <point x="285" y="273.84" type="line"/>
      <point x="305.385" y="266" type="line" smooth="yes"/>
      <point x="318.625" y="260.908"/>
      <point x="330.895" y="255.797"/>
      <point x="342.207" y="250.655" type="curve" smooth="yes"/>
      <point x="342.757" y="250.406" type="line"/>
      <point x="343.285" y="250.112" type="line" smooth="yes"/>
      <point x="348.488" y="247.221"/>
      <point x="354.059" y="244.5"/>
    </contour>
    <contour>
      <point x="265" y="774" type="curve" smooth="yes"/>
      <point x="392" y="774" type="line"/>
      <point x="392" y="612" type="line"/>
      <point x="273" y="612" type="line" smooth="yes"/>
      <point x="247.259" y="612"/>
      <point x="234" y="597.706"/>
      <point x="234" y="576" type="curve" smooth="yes"/>
      <point x="234" y="560.97"/>
      <point x="241.097" y="550.311"/>
      <point x="255.459" y="538.642" type="curve" smooth="yes"/>
      <point x="261" y="534.14" type="line"/>
      <point x="261" y="350.16" type="line"/>
      <point x="240.615" y="358" type="line" smooth="yes"/>
      <point x="227.799" y="362.929"/>
      <point x="216.091" y="366.684"/>
      <point x="204" y="372.729" type="curve"/>
      <point x="198.137" y="375.986"/>
      <point x="193.13" y="378.405"/>
      <point x="187.186" y="381.39" type="curve"/>
      <point x="184.115" y="376.208"/>
      <point x="182" y="369.564"/>
      <point x="182" y="357" type="curve" smooth="yes"/>
      <point x="182" y="324.425"/>
      <point x="209.983" y="303.755"/>
      <point x="251.909" y="285.787" type="curve" smooth="yes"/>
      <point x="261" y="281.891" type="line"/>
      <point x="261" y="102.444" type="line"/>
      <point x="240.199" y="111.167" type="line" smooth="yes"/>
      <point x="209.751" y="123.936"/>
      <point x="175.178" y="136.014"/>
      <point x="146.376" y="153.082" type="curve" smooth="yes"/>
      <point x="85.0109" y="189.297"/>
      <point x="11" y="240.817"/>
      <point x="11" y="351" type="curve" smooth="yes"/>
      <point x="11" y="414.017"/>
      <point x="38.5029" y="467.892"/>
      <point x="80.6709" y="504.229" type="curve"/>
      <point x="75.1708" y="524.279"/>
      <point x="73" y="546.249"/>
      <point x="73" y="571" type="curve" smooth="yes"/>
      <point x="73" y="720.073"/>
      <point x="191.155" y="774"/>
    </contour>
  </outline>
</glyph>
<glyph name="copyright" format="1">
  <advance width="859"/>
  <unicode hex="00A9"/>
  <outline>
    <contour>
      <point x="427" y="58.2981" type="line"/>
      <point x="427" y="-64.5324" type="line"/>
      <point x="411.477" y="-63.9909" type="line" smooth="yes"/>
      <point x="232.004" y="-57.7302"/>
      <point x="41.2402" y="94.8704"/>
      <point x="35" y="326.798" type="curve"/>
      <point x="35" y="339" type="line" smooth="yes"/>
      <point x="35" y="598.505"/>
      <point x="256.591" y="739.95"/>
      <point x="411.899" y="741" type="curve" smooth="yes"/>
      <point x="427" y="741.102" type="line"/>
      <point x="427" y="621.116" type="line"/>
      <point x="412.116" y="621" type="line" smooth="yes"/>
      <point x="291.507" y="620.065"/>
      <point x="154" y="507.596"/>
      <point x="154" y="339" type="curve" smooth="yes"/>
      <point x="154" y="332.147" type="line"/>
      <point x="156.842" y="187.191"/>
      <point x="274.971" y="65.5871"/>
      <point x="412.718" y="58.9828" type="curve" smooth="yes"/>
    </contour>
    <contour>
      <point x="432" y="464.778" type="line"/>
      <point x="432" y="581" type="line"/>
      <point x="447" y="581" type="line" smooth="yes"/>
      <point x="514.955" y="581"/>
      <point x="580" y="515.636"/>
      <point x="580" y="446" type="curve" smooth="yes"/>
      <point x="580" y="435.605" type="line"/>
      <point x="462" y="391.355" type="line"/>
      <point x="462" y="432" type="line" smooth="yes"/>
      <point x="462" y="441.042"/>
      <point x="461.603" y="446.019"/>
      <point x="460.102" y="450.335" type="curve"/>
      <point x="457.447" y="455.603"/>
      <point x="442.862" y="461.582"/>
      <point x="442.765" y="461.61" type="curve" smooth="yes"/>
    </contour>
    <contour>
      <point x="442.76" y="215.388" type="line" smooth="yes"/>
      <point x="443.021" y="215.465"/>
      <point x="457.629" y="221.461"/>
      <point x="460.141" y="227.741" type="curve"/>
      <point x="461.788" y="231.583"/>
      <point x="462" y="235.638"/>
      <point x="462" y="245" type="curve" smooth="yes"/>
      <point x="462" y="285.415" type="line"/>
      <point x="580" y="242.506" type="line"/>
      <point x="580" y="232" type="line" smooth="yes"/>
      <point x="580" y="162.364"/>
      <point x="514.955" y="97"/>
      <point x="447" y="97" type="curve" smooth="yes"/>
      <point x="432" y="97" type="line"/>
      <point x="432" y="212.217" type="line"/>
    </contour>
    <contour>
      <point x="427" y="581" type="line"/>
      <point x="427" y="461" type="line"/>
      <point x="412" y="461" type="line" smooth="yes"/>
      <point x="396.64" y="461"/>
      <point x="392.912" y="449.831"/>
      <point x="392" y="446.039" type="curve"/>
      <point x="392" y="232.016" type="line"/>
      <point x="393.225" y="227.489"/>
      <point x="396.878" y="218"/>
      <point x="412" y="218" type="curve" smooth="yes"/>
      <point x="427" y="218" type="line"/>
      <point x="427" y="97" type="line"/>
      <point x="412" y="97" type="line" smooth="yes"/>
      <point x="310.132" y="97"/>
      <point x="272" y="187.255"/>
      <point x="272" y="231" type="curve" smooth="yes"/>
      <point x="272" y="447" type="line" smooth="yes"/>
      <point x="272" y="490.747"/>
      <point x="310.131" y="581"/>
      <point x="412" y="581" type="curve" smooth="yes"/>
    </contour>
    <contour>
      <point x="446.282" y="58.9828" type="line" smooth="yes"/>
      <point x="584.029" y="65.5871"/>
      <point x="702.158" y="187.19"/>
      <point x="705" y="332.147" type="curve"/>
      <point x="705" y="339" type="line" smooth="yes"/>
      <point x="705" y="507.596"/>
      <point x="567.494" y="620.065"/>
      <point x="446.884" y="621" type="curve" smooth="yes"/>
      <point x="432" y="621.116" type="line"/>
      <point x="432" y="741.102" type="line"/>
      <point x="447.101" y="741" type="line" smooth="yes"/>
      <point x="602.409" y="739.95"/>
      <point x="824" y="598.505"/>
      <point x="824" y="339" type="curve" smooth="yes"/>
      <point x="824" y="326.798" type="line"/>
      <point x="817.76" y="94.8701"/>
      <point x="626.996" y="-57.7302"/>
      <point x="447.523" y="-63.9909" type="curve" smooth="yes"/>
      <point x="432" y="-64.5324" type="line"/>
      <point x="432" y="58.2981" type="line"/>
    </contour>
  </outline>
</glyph>
<glyph name="logicalnot" format="1">
  <advance width="502"/>
  <unicode hex="00AC"/>
  <outline>
    <contour>
      <point x="491" y="193" type="line"/>
      <point x="343" y="193" type="line"/>
      <point x="343" y="312" type="line"/>
      <point x="11" y="312" type="line"/>
      <point x="11" y="457" type="line"/>
      <point x="491" y="457" type="line"/>
    </contour>
  </outline>
</glyph>
<glyph name="degree" format="1">
  <advance width="282"/>
  <unicode hex="00B0"/>
  <outline>
    <contour>
      <point x="117" y="583" type="curve" smooth="yes"/>
      <point x="117" y="570.278"/>
      <point x="127.282" y="560"/>
      <point x="140" y="560" type="curve" smooth="yes"/>
      <point x="154.023" y="560"/>
      <point x="164" y="570.469"/>
      <point x="164" y="583" type="curve" smooth="yes"/>
      <point x="164" y="596.845"/>
      <point x="153.823" y="607"/>
      <point x="140" y="607" type="curve" smooth="yes"/>
      <point x="127.456" y="607"/>
      <point x="117" y="597.014"/>
    </contour>
    <contour>
      <point x="10" y="583" type="curve" smooth="yes"/>
      <point x="10" y="655.352"/>
      <point x="68.7862" y="713"/>
      <point x="140" y="713" type="curve" smooth="yes"/>
      <point x="212.113" y="713"/>
      <point x="271" y="655.412"/>
      <point x="271" y="583" type="curve" smooth="yes"/>
      <point x="271" y="511.611"/>
      <point x="212.229" y="453"/>
      <point x="140" y="453" type="curve" smooth="yes"/>
      <point x="68.6703" y="453"/>
      <point x="10" y="511.67"/>
    </contour>
  </outline>
</glyph>
<glyph name="plusminus" format="1">
  <advance width="575"/>
  <unicode hex="00B1"/>
  <outline>
    <contour>
      <point x="491" y="182" type="line"/>
      <point x="491" y="25" type="line"/>
      <point x="85" y="25" type="line"/>
      <point x="85" y="182" type="line"/>
    </contour>
    <component base="plus" yOffset="161"/>
  </outline>
</glyph>
<glyph name="uni00B2" format="1">
  <advance width="245"/>
  <unicode hex="00B2"/>
  <outline>
    <contour>
      <point x="231" y="466" type="line"/>
      <point x="231" y="374" type="line"/>
      <point x="19" y="374" type="line"/>
      <point x="19" y="454" type="line"/>
      <point x="9.72949" y="454" type="line"/>
      <point x="23.5335" y="481.608" type="line" smooth="yes"/>
      <point x="51.3066" y="539.291"/>
      <point x="100.075" y="566.755"/>
      <point x="109.341" y="574.476" type="curve" smooth="yes"/>
      <point x="134.869" y="596.176"/>
      <point x="144" y="594.754"/>
      <point x="144" y="608" type="curve" smooth="yes"/>
      <point x="144" y="620.737"/>
      <point x="142.306" y="623.02"/>
      <point x="124.705" y="624" type="curve" smooth="yes"/>
      <point x="120" y="624" type="line"/>
      <point x="120" y="623" type="line"/>
      <point x="106.077" y="623" type="line" smooth="yes"/>
      <point x="103.571" y="621.106"/>
      <point x="100" y="618.155"/>
      <point x="100" y="608" type="curve" smooth="yes"/>
      <point x="100" y="585.642" type="line"/>
      <point x="11" y="603.744" type="line"/>
      <point x="11" y="619.787" type="line"/>
      <point x="11.0824" y="620.57" type="line" smooth="yes"/>
      <point x="15.659" y="664.048"/>
      <point x="47.7337" y="708.907"/>
      <point x="99.2675" y="714.9" type="curve" smooth="yes"/>
      <point x="100.131" y="715" type="line"/>
      <point x="107" y="715" type="line"/>
      <point x="120" y="715" type="line"/>
      <point x="129" y="715" type="line" smooth="yes"/>
      <point x="209.119" y="715"/>
      <point x="234" y="647.476"/>
      <point x="234" y="609" type="curve" smooth="yes"/>
      <point x="234" y="553.468"/>
      <point x="204.319" y="533.501"/>
      <point x="178.766" y="514.828" type="curve" smooth="yes"/>
      <point x="149.056" y="493.743"/>
      <point x="134.974" y="482.598"/>
      <point x="123.665" y="466" type="curve"/>
    </contour>
  </outline>
</glyph>
<glyph name="acute" format="1">
  <advance width="263"/>
  <unicode hex="00B4"/>
  <outline>
    <contour>
      <point x="150.436" y="590" type="line"/>
      <point x="30.9107" y="590" type="line"/>
      <point x="75.2133" y="772" type="line"/>
      <point x="237.844" y="772" type="line"/>
    </contour>
  </outline>
</glyph>
<glyph name="mu" format="1">
  <advance width="468"/>
  <unicode hex="00B5"/>
  <outline>
    <contour>
      <point x="11" y="713" type="line"/>
      <point x="165" y="713" type="line"/>
      <point x="165" y="327.197" type="line"/>
      <point x="165.964" y="324.159"/>
      <point x="169.179" y="315"/>
      <point x="187" y="315" type="curve" smooth="yes"/>
      <point x="207" y="315" type="line"/>
      <point x="207" y="164" type="line"/>
      <point x="187" y="164" type="line" smooth="yes"/>
      <point x="179.576" y="164"/>
      <point x="172.214" y="164.36"/>
      <point x="165" y="165.121" type="curve"/>
      <point x="165" y="-15" type="line"/>
      <point x="11" y="-15" type="line"/>
    </contour>
    <contour>
      <point x="261" y="715" type="line"/>
      <point x="415" y="715" type="line"/>
      <point x="415" y="329.197" type="line"/>
      <point x="415.964" y="326.159"/>
      <point x="419.179" y="317"/>
      <point x="437" y="317" type="curve" smooth="yes"/>
      <point x="457" y="317" type="line"/>
      <point x="457" y="166" type="line"/>
      <point x="437" y="166" type="line" smooth="yes"/>
      <point x="398.229" y="166"/>
      <point x="364.606" y="177.824"/>
      <point x="339.093" y="194.558" type="curve"/>
      <point x="311.432" y="175.88"/>
      <point x="278.87" y="164"/>
      <point x="239" y="164" type="curve" smooth="yes"/>
      <point x="219" y="164" type="line"/>
      <point x="219" y="315" type="line"/>
      <point x="239" y="315" type="line" smooth="yes"/>
      <point x="256.498" y="315"/>
      <point x="259.965" y="324.633"/>
      <point x="261" y="327.568" type="curve"/>
    </contour>
  </outline>
</glyph>
<glyph name="cedilla" format="1">
  <advance width="219"/>
  <unicode hex="00B8"/>
  <outline>
    <contour>
      <point x="87" y="138" type="line"/>
      <point x="209" y="138" type="line"/>
      <point x="209" y="123" type="line" smooth="yes"/>
      <point x="209" y="41.2397"/>
      <point x="162.13" y="-51"/>
      <point x="26" y="-51" type="curve" smooth="yes"/>
      <point x="11" y="-51" type="line"/>
      <point x="11" y="70" type="line"/>
      <point x="26" y="70" type="line" smooth="yes"/>
      <point x="59.0476" y="70"/>
      <point x="87" y="79.2493"/>
      <point x="87" y="123" type="curve" smooth="yes"/>
    </contour>
  </outline>
</glyph>
<glyph name="ordmasculine" format="1">
  <advance width="230"/>
  <unicode hex="00BA"/>
  <outline>
    <contour>
      <point x="17" y="637" type="line" smooth="yes"/>
      <point x="17" y="665.562"/>
      <point x="45.2767" y="715"/>
      <point x="103" y="715" type="curve" smooth="yes"/>
      <point x="108" y="715" type="line"/>
      <point x="123" y="715" type="line"/>
      <point x="127" y="715" type="line" smooth="yes"/>
      <point x="183.031" y="715"/>
      <point x="211" y="665.175"/>
      <point x="211" y="637" type="curve" smooth="yes"/>
      <point x="211" y="533" type="line" smooth="yes"/>
      <point x="211" y="505.928"/>
      <point x="184.269" y="455"/>
      <point x="127" y="455" type="curve" smooth="yes"/>
      <point x="123" y="455" type="line"/>
      <point x="108" y="455" type="line"/>
      <point x="103" y="455" type="line" smooth="yes"/>
      <point x="44.0984" y="455"/>
      <point x="17" y="505.885"/>
      <point x="17" y="533" type="curve" smooth="yes"/>
    </contour>
    <contour>
      <point x="11" y="447" type="line"/>
      <point x="219" y="447" type="line"/>
      <point x="219" y="346" type="line"/>
      <point x="11" y="346" type="line"/>
    </contour>
    <contour>
      <point x="123" y="630" type="line"/>
      <point x="108" y="630" type="line"/>
      <point x="103" y="630" type="line"/>
      <point x="103" y="540" type="line"/>
      <point x="123" y="540" type="line"/>
      <point x="123" y="538" type="line"/>
      <point x="126" y="538" type="line"/>
      <point x="126" y="630" type="line"/>
    </contour>
  </outline>
</glyph>
<glyph name="questiondown" format="1">
  <advance width="460"/>
  <unicode hex="00BF"/>
  <outline>
    <contour>
      <point x="124" y="172" type="line" smooth="yes"/>
      <point x="142.525" y="147.3"/>
      <point x="172.148" y="129"/>
      <point x="210" y="129" type="curve" smooth="yes"/>
      <point x="251.419" y="129"/>
      <point x="287" y="154.527"/>
      <point x="287" y="196" type="curve" smooth="yes"/>
      <point x="287" y="276.935"/>
      <point x="251.544" y="285.989"/>
      <point x="133.744" y="288.002" type="curve" smooth="yes"/>
      <point x="119" y="288.254" type="line"/>
      <point x="119" y="538" type="line"/>
      <point x="278" y="538" type="line"/>
      <point x="278" y="425.918" type="line"/>
      <point x="320.348" y="417.7"/>
      <point x="445" y="377.644"/>
      <point x="445" y="208" type="curve" smooth="yes"/>
      <point x="445" y="64.9981"/>
      <point x="357.215" y="-29"/>
      <point x="218" y="-29" type="curve" smooth="yes"/>
      <point x="104.134" y="-29"/>
      <point x="49.2173" y="29.4506"/>
      <point x="18.2268" y="68.7053" type="curve" smooth="yes"/>
      <point x="10.1098" y="78.9868" type="line"/>
      <point x="113.433" y="186.09" type="line"/>
    </contour>
    <contour>
      <point x="107" y="636" type="curve" smooth="yes"/>
      <point x="107" y="686.2"/>
      <point x="146.8" y="726"/>
      <point x="197" y="726" type="curve" smooth="yes"/>
      <point x="247.011" y="726"/>
      <point x="288" y="686.467"/>
      <point x="288" y="636" type="curve" smooth="yes"/>
      <point x="288" y="585.722"/>
      <point x="247.279" y="545"/>
      <point x="197" y="545" type="curve" smooth="yes"/>
      <point x="146.533" y="545"/>
      <point x="107" y="585.989"/>
    </contour>
  </outline>
</glyph>
<glyph name="Aring" format="1">
  <advance width="576"/>
  <unicode hex="00C5"/>
  <outline>
    <contour>
      <point x="206.8" y="678.52" type="line"/>
      <point x="186.002" y="698.817"/>
      <point x="176.688" y="722.85"/>
      <point x="176.688" y="750" type="curve" smooth="yes"/>
      <point x="176.688" y="811.284"/>
      <point x="232.155" y="861"/>
      <point x="304.579" y="861" type="curve" smooth="yes"/>
      <point x="377.003" y="861"/>
      <point x="428.688" y="811.284"/>
      <point x="428.688" y="750" type="curve" smooth="yes"/>
      <point x="428.688" y="723.895"/>
      <point x="418.771" y="700.238"/>
      <point x="403.94" y="682.508" type="curve"/>
      <point x="557.275" y="-0" type="line"/>
      <point x="389.809" y="0" type="line"/>
      <point x="366.173" y="81.7305" type="line"/>
      <point x="247.132" y="81.7305" type="line"/>
      <point x="290.293" y="243.27" type="line"/>
      <point x="325.05" y="243.27" type="line"/>
    </contour>
    <contour>
      <point x="304.579" y="767" type="curve" smooth="yes"/>
      <point x="292.966" y="767"/>
      <point x="284.489" y="759.822"/>
      <point x="284.489" y="750" type="curve" smooth="yes"/>
      <point x="284.489" y="740.173"/>
      <point x="292.972" y="733"/>
      <point x="304.579" y="733" type="curve" smooth="yes"/>
      <point x="316.193" y="733"/>
      <point x="324.669" y="740.178"/>
      <point x="324.669" y="750" type="curve" smooth="yes"/>
      <point x="324.669" y="759.827"/>
      <point x="316.187" y="767"/>
    </contour>
    <contour>
      <point x="26" y="0" type="line"/>
      <point x="161.649" y="612" type="line"/>
      <point x="201.915" y="612" type="line"/>
      <point x="276.628" y="316.969" type="line"/>
      <point x="194.765" y="0" type="line"/>
    </contour>
  </outline>
</glyph>
<glyph name="AE" format="1">
  <advance width="817"/>
  <unicode hex="00C6"/>
  <outline>
    <contour>
      <point x="557.303" y="171" type="line"/>
      <point x="795.345" y="171" type="line"/>
      <point x="795.345" y="0" type="line"/>
      <point x="360.612" y="0" type="line"/>
      <point x="360.612" y="148" type="line"/>
      <point x="281.181" y="148" type="line"/>
      <point x="322.877" y="298" type="line"/>
      <point x="360.612" y="298" type="line"/>
      <point x="371.345" y="520.426" type="line"/>
      <point x="213.098" y="-0" type="line"/>
      <point x="26" y="0" type="line"/>
      <point x="224.053" y="700" type="line"/>
      <point x="795.345" y="700" type="line"/>
      <point x="795.345" y="530" type="line"/>
      <point x="550.007" y="530" type="line"/>
      <point x="550.007" y="433" type="line"/>
      <point x="701.345" y="433" type="line"/>
      <point x="701.345" y="262" type="line"/>
      <point x="557.303" y="262" type="line"/>
    </contour>
  </outline>
</glyph>
<glyph name="multiply" format="1">
  <advance width="757"/>
  <unicode hex="00D7"/>
  <outline>
    <contour>
      <point x="263.828" y="417" type="line"/>
      <point x="100" y="567.427" type="line"/>
      <point x="210.181" y="677.606" type="line"/>
      <point x="385.227" y="528.213" type="line"/>
      <point x="559.181" y="676.606" type="line"/>
      <point x="669.394" y="566.394" type="line"/>
      <point x="506.698" y="418" type="line"/>
      <point x="669.453" y="269.606" type="line"/>
      <point x="558.121" y="159.512" type="line"/>
      <point x="385.264" y="306.754" type="line"/>
      <point x="211.214" y="157.36" type="line"/>
      <point x="101" y="267.573" type="line"/>
    </contour>
  </outline>
</glyph>
<glyph name="Thorn" format="1">
  <advance width="534"/>
  <unicode hex="00DE"/>
  <outline>
    <contour>
      <point x="232.739" y="193" type="line"/>
      <point x="232.739" y="362" type="line"/>
      <point x="291.174" y="362" type="line" smooth="yes"/>
      <point x="299.654" y="362"/>
      <point x="335" y="361.682"/>
      <point x="335" y="398" type="curve" smooth="yes"/>
      <point x="335" y="436.095"/>
      <point x="301.008" y="436"/>
      <point x="291.174" y="436" type="curve" smooth="yes"/>
      <point x="232.739" y="436" type="line"/>
      <point x="232.739" y="605" type="line"/>
      <point x="251" y="605" type="line" smooth="yes"/>
      <point x="453.198" y="605"/>
      <point x="508" y="522.989"/>
      <point x="508" y="402" type="curve" smooth="yes"/>
      <point x="508" y="250.308"/>
      <point x="427.388" y="193"/>
      <point x="251" y="193" type="curve" smooth="yes"/>
    </contour>
    <contour>
      <point x="26" y="0" type="line"/>
      <point x="26" y="700" type="line"/>
      <point x="203.522" y="700" type="line"/>
      <point x="203.522" y="0" type="line"/>
    </contour>
  </outline>
</glyph>
<glyph name="ae" format="1">
  <advance width="816"/>
  <unicode hex="00E6"/>
  <outline>
    <contour>
      <point x="555" y="359.625" type="line" smooth="yes"/>
      <point x="555" y="369.219"/>
      <point x="544.157" y="372"/>
      <point x="521.043" y="372" type="curve" smooth="yes"/>
      <point x="498" y="372" type="line"/>
      <point x="498" y="516" type="line"/>
      <point x="523.468" y="516" type="line" smooth="yes"/>
      <point x="605.877" y="516"/>
      <point x="699" y="449.138"/>
      <point x="699" y="369.79" type="curve" smooth="yes"/>
      <point x="789" y="193" type="line"/>
      <point x="520.071" y="193" type="line"/>
      <point x="520.071" y="146.605" type="line" smooth="yes"/>
      <point x="520.071" y="135.281"/>
      <point x="529.736" y="129.032"/>
      <point x="560.266" y="128.048" type="curve"/>
      <point x="619" y="128.048" type="line" smooth="yes"/>
      <point x="642.823" y="128.048"/>
      <point x="657.316" y="145.367"/>
      <point x="661.343" y="162.553" type="curve" smooth="yes"/>
      <point x="665.022" y="178.262" type="line"/>
      <point x="792.756" y="133.966" type="line"/>
      <point x="789.565" y="121.938" type="line" smooth="yes"/>
      <point x="771.802" y="54.9785"/>
      <point x="697.168" y="0"/>
      <point x="619" y="0" type="curve" smooth="yes"/>
      <point x="560" y="0" type="line" smooth="yes"/>
      <point x="495.606" y="0"/>
      <point x="452.45" y="7.74512"/>
      <point x="425.627" y="26.2734" type="curve"/>
      <point x="401.11" y="10.168"/>
      <point x="371.369" y="1"/>
      <point x="307" y="1" type="curve" smooth="yes"/>
      <point x="289" y="1" type="line"/>
      <point x="289" y="143" type="line"/>
      <point x="306.75" y="143" type="line"/>
      <point x="342.245" y="143.492"/>
      <point x="355.477" y="158.959"/>
      <point x="358" y="164.719" type="curve"/>
      <point x="358" y="218.155" type="line"/>
      <point x="281.22" y="200.851"/>
      <point x="185.922" y="188.172"/>
      <point x="175.579" y="184.584" type="curve" smooth="yes"/>
      <point x="173.629" y="183.907"/>
      <point x="170.235" y="182.097"/>
      <point x="170.235" y="177" type="curve" smooth="yes"/>
      <point x="170.235" y="164" type="line" smooth="yes"/>
      <point x="170.235" y="149.871"/>
      <point x="175.74" y="143"/>
      <point x="200.5" y="143" type="curve" smooth="yes"/>
      <point x="240" y="143" type="line"/>
      <point x="240" y="1" type="line"/>
      <point x="225" y="1" type="line" smooth="yes"/>
      <point x="93.4551" y="1"/>
      <point x="26" y="53.5"/>
      <point x="26" y="118.212" type="curve" smooth="yes"/>
      <point x="26" y="184.38" type="line" smooth="yes"/>
      <point x="26" y="219.006"/>
      <point x="37.1982" y="244.974"/>
      <point x="82.5088" y="269.448" type="curve"/>
      <point x="137.16" y="299.482"/>
      <point x="268" y="325.92"/>
      <point x="268" y="346.019" type="curve" smooth="yes"/>
      <point x="268" y="357.361" type="line" smooth="yes"/>
      <point x="268" y="379.605"/>
      <point x="269.731" y="384.773"/>
      <point x="246" y="384.773" type="curve" smooth="yes"/>
      <point x="193" y="384.773" type="line" smooth="yes"/>
      <point x="180.08" y="384.773"/>
      <point x="168" y="378.378"/>
      <point x="168" y="347.909" type="curve" smooth="yes"/>
      <point x="168" y="323.554" type="line"/>
      <point x="33" y="372.167" type="line"/>
      <point x="33" y="383.828" type="line" smooth="yes"/>
      <point x="33" y="461.315"/>
      <point x="118.649" y="519"/>
      <point x="193" y="519" type="curve" smooth="yes"/>
      <point x="248" y="519" type="line" smooth="yes"/>
      <point x="286.979" y="519"/>
      <point x="319.708" y="505.497"/>
      <point x="344.459" y="486.952" type="curve"/>
      <point x="370.225" y="504.44"/>
      <point x="405.135" y="516"/>
      <point x="450.702" y="516" type="curve" smooth="yes"/>
      <point x="474.957" y="516" type="line"/>
      <point x="474.957" y="370" type="line"/>
      <point x="453.128" y="370" type="line" smooth="yes"/>
      <point x="431.13" y="370"/>
      <point x="423.056" y="364.062"/>
      <point x="420.383" y="360.418" type="curve"/>
      <point x="420.383" y="339" type="line"/>
      <point x="555" y="339" type="line"/>
    </contour>
  </outline>
</glyph>
<glyph name="idieresis" format="1">
  <advance width="259"/>
  <unicode hex="00EF"/>
  <outline>
    <contour>
      <point x="29" y="546" type="curve" smooth="yes"/>
      <point x="-21.2002" y="546"/>
      <point x="-61" y="585.8"/>
      <point x="-61" y="636" type="curve" smooth="yes"/>
      <point x="-61" y="686.011"/>
      <point x="-21.4668" y="727"/>
      <point x="29" y="727" type="curve" smooth="yes"/>
      <point x="68.8311" y="727"/>
      <point x="101.852" y="701.467"/>
      <point x="114" y="666.118" type="curve"/>
      <point x="126.148" y="701.467"/>
      <point x="159.169" y="727"/>
      <point x="229" y="727" type="curve" smooth="yes"/>
      <point x="279.467" y="727"/>
      <point x="319" y="686.011"/>
      <point x="319" y="636" type="curve" smooth="yes"/>
      <point x="319" y="585.8"/>
      <point x="279.2" y="546"/>
      <point x="229" y="546" type="curve" smooth="yes"/>
      <point x="159.35" y="546"/>
      <point x="126.187" y="570.83"/>
      <point x="114" y="606.003" type="curve"/>
      <point x="101.813" y="570.83"/>
      <point x="68.6504" y="546"/>
    </contour>
    <contour>
      <point x="221" y="516" type="line"/>
      <point x="221" y="0" type="line"/>
      <point x="39" y="0" type="line"/>
      <point x="39" y="516" type="line"/>
    </contour>
  </outline>
</glyph>
<glyph name="oslash" format="1">
  <advance width="558"/>
  <unicode hex="00F8"/>
  <outline>
    <contour>
      <point x="455.029" y="461.246" type="curve"/>
      <point x="497.205" y="497.4" type="line"/>
      <point x="570.049" y="419.458" type="line"/>
      <point x="497.024" y="356.619" type="line"/>
      <point x="497.024" y="147.39" type="line" smooth="yes"/>
      <point x="497.024" y="98.3604"/>
      <point x="443.471" y="-1"/>
      <point x="325.487" y="-1" type="curve" smooth="yes"/>
      <point x="299.526" y="-1" type="line"/>
      <point x="299.526" y="147" type="line"/>
      <point x="325.187" y="147" type="line"/>
      <point x="348.593" y="147.639"/>
      <point x="350.024" y="159.589"/>
      <point x="350.024" y="167" type="curve" smooth="yes"/>
      <point x="350.024" y="241.802" type="line"/>
      <point x="235.161" y="155.201" type="line"/>
      <point x="237.926" y="151.177"/>
      <point x="242.653" y="147"/>
      <point x="259.967" y="147" type="curve" smooth="yes"/>
      <point x="285.928" y="147" type="line"/>
      <point x="285.928" y="-1" type="line"/>
      <point x="259.967" y="-1" type="line" smooth="yes"/>
      <point x="188.463" y="-1"/>
      <point x="145.033" y="23.8047"/>
      <point x="117.376" y="53.0684" type="curve"/>
      <point x="72.8672" y="14.7393" type="line"/>
      <point x="0" y="92.7061" type="line"/>
      <point x="73.0244" y="155.545" type="line"/>
      <point x="73.0244" y="369.501" type="line" smooth="yes"/>
      <point x="73.0244" y="419.163"/>
      <point x="129.226" y="516"/>
      <point x="259.967" y="516" type="curve" smooth="yes"/>
      <point x="285.928" y="516" type="line"/>
      <point x="285.928" y="368" type="line"/>
      <point x="259.967" y="368" type="line" smooth="yes"/>
      <point x="233.008" y="368"/>
      <point x="231.534" y="354.46"/>
      <point x="231.534" y="348" type="curve" smooth="yes"/>
      <point x="231.534" y="272.214" type="line"/>
      <point x="348.188" y="359.884" type="line"/>
      <point x="346.079" y="364.005"/>
      <point x="343.194" y="368"/>
      <point x="325.487" y="368" type="curve" smooth="yes"/>
      <point x="299.526" y="368" type="line"/>
      <point x="299.526" y="516" type="line"/>
      <point x="325.487" y="516" type="line" smooth="yes"/>
      <point x="385.124" y="516"/>
      <point x="428.127" y="491.125"/>
    </contour>
  </outline>
</glyph>
<glyph name="dotlessi" format="1">
  <advance width="204"/>
  <unicode hex="0131"/>
  <outline>
    <contour>
      <point x="178" y="516" type="line"/>
      <point x="178" y="0" type="line"/>
      <point x="26" y="0" type="line"/>
      <point x="26" y="516" type="line"/>
    </contour>
  </outline>
</glyph>
<glyph name="Lslash" format="1">
  <advance width="590"/>
  <unicode hex="0141"/>
  <outline>
    <contour>
      <point x="313.325" y="518.053" type="line"/>
      <point x="392.249" y="566.637" type="line"/>
      <point x="492.039" y="456.142" type="line"/>
      <point x="313.325" y="340.961" type="line"/>
      <point x="313.325" y="169" type="line"/>
      <point x="571.029" y="169" type="line"/>
      <point x="571.029" y="0" type="line"/>
      <point x="135.029" y="0" type="line"/>
      <point x="135.029" y="208.482" type="line"/>
      <point x="116.351" y="194.616" type="line"/>
      <point x="26" y="306.523" type="line"/>
      <point x="135.029" y="387.726" type="line"/>
      <point x="135.029" y="700" type="line"/>
      <point x="313.325" y="700" type="line"/>
    </contour>
  </outline>
</glyph>
<glyph name="lslash" format="1">
  <advance width="484"/>
  <unicode hex="0142"/>
  <outline>
    <contour>
      <point x="26" y="289.636" type="line"/>
      <point x="379.655" y="542.087" type="line"/>
      <point x="470.021" y="425.364" type="line"/>
      <point x="116.365" y="172.913" type="line"/>
    </contour>
    <component base="l" xOffset="117"/>
  </outline>
</glyph>
<glyph name="OE" format="1">
  <advance width="814"/>
  <unicode hex="0152"/>
  <outline>
    <contour>
      <point x="565" y="171" type="line"/>
      <point x="788" y="171" type="line"/>
      <point x="788" y="0" type="line"/>
      <point x="316.146" y="0" type="line"/>
      <point x="316.146" y="172" type="line"/>
      <point x="394" y="172" type="line"/>
      <point x="394" y="529" type="line"/>
      <point x="315.889" y="529" type="line"/>
      <point x="315.889" y="700" type="line"/>
      <point x="788" y="700" type="line"/>
      <point x="788" y="530" type="line"/>
      <point x="565" y="530" type="line"/>
      <point x="565" y="433" type="line"/>
      <point x="694" y="433" type="line"/>
      <point x="694" y="262" type="line"/>
      <point x="565" y="262" type="line"/>
    </contour>
    <contour>
      <point x="282" y="0" type="line"/>
      <point x="267" y="0" type="line" smooth="yes"/>
      <point x="173.465" y="0"/>
      <point x="26" y="57.2031"/>
      <point x="26" y="206.164" type="curve" smooth="yes"/>
      <point x="26" y="512.055" type="line" smooth="yes"/>
      <point x="26" y="576.483"/>
      <point x="95.8633" y="700"/>
      <point x="268" y="700" type="curve" smooth="yes"/>
      <point x="283" y="700" type="line"/>
      <point x="283" y="538.499" type="line"/>
      <point x="268.326" y="538.197" type="line" smooth="yes"/>
      <point x="224.435" y="537.561"/>
      <point x="210.997" y="505.654"/>
      <point x="209.676" y="498.944" type="curve"/>
      <point x="209.857" y="212.688" type="line" smooth="yes"/>
      <point x="209.857" y="183.936"/>
      <point x="255.876" y="173.446"/>
      <point x="267.666" y="172" type="curve"/>
      <point x="282" y="172" type="line"/>
    </contour>
  </outline>
</glyph>
<glyph name="oe" format="1">
  <advance width="761"/>
  <unicode hex="0153"/>
  <outline>
    <contour>
      <point x="590" y="366.656" type="line" smooth="yes"/>
      <point x="590" y="379.521"/>
      <point x="579.073" y="383.25"/>
      <point x="555.778" y="383.25" type="curve" smooth="yes"/>
      <point x="532.556" y="383.25" type="line"/>
      <point x="532.556" y="516" type="line"/>
      <point x="558.222" y="516" type="line" smooth="yes"/>
      <point x="640.877" y="516"/>
      <point x="734" y="449.138"/>
      <point x="734" y="369.79" type="curve" smooth="yes"/>
      <point x="734" y="193" type="line"/>
      <point x="473" y="193" type="line"/>
      <point x="473" y="145.687" type="line"/>
      <point x="475.495" y="139.662"/>
      <point x="484.8" y="128.896"/>
      <point x="505.175" y="128.048" type="curve"/>
      <point x="564" y="128.048" type="line" smooth="yes"/>
      <point x="585.823" y="128.048"/>
      <point x="602.533" y="145.184"/>
      <point x="605.265" y="158.489" type="curve" smooth="yes"/>
      <point x="605.345" y="158.877" type="line"/>
      <point x="610.521" y="178.089" type="line"/>
      <point x="740.876" y="132.884" type="line"/>
      <point x="733.416" y="119.04" type="line" smooth="yes"/>
      <point x="699.872" y="56.79"/>
      <point x="652.836" y="0"/>
      <point x="564" y="0" type="curve" smooth="yes"/>
      <point x="505" y="0" type="line" smooth="yes"/>
      <point x="442.945" y="0"/>
      <point x="404.582" y="12.4609"/>
      <point x="379.141" y="30.1465" type="curve"/>
      <point x="352.903" y="11.4238"/>
      <point x="320.778" y="-1"/>
      <point x="277.039" y="-1" type="curve" smooth="yes"/>
      <point x="251.079" y="-1" type="line"/>
      <point x="251.079" y="143" type="line"/>
      <point x="276.74" y="143" type="line"/>
      <point x="298.194" y="143.494"/>
      <point x="301.981" y="152.278"/>
      <point x="303" y="154.711" type="curve"/>
      <point x="303" y="357.256" type="line"/>
      <point x="301.66" y="360.265"/>
      <point x="297.652" y="368"/>
      <point x="277.039" y="368" type="curve" smooth="yes"/>
      <point x="251.079" y="368" type="line"/>
      <point x="251.079" y="516" type="line"/>
      <point x="277.039" y="516" type="line" smooth="yes"/>
      <point x="320.715" y="516"/>
      <point x="353.201" y="503.555"/>
      <point x="378.152" y="485.835" type="curve"/>
      <point x="403.963" y="503.834"/>
      <point x="438.612" y="516"/>
      <point x="484.889" y="516" type="curve" smooth="yes"/>
      <point x="509.333" y="516" type="line"/>
      <point x="509.333" y="370" type="line"/>
      <point x="487.333" y="370" type="line" smooth="yes"/>
      <point x="463.519" y="370"/>
      <point x="461.667" y="362.769"/>
      <point x="461.667" y="359.218" type="curve" smooth="yes"/>
      <point x="461.667" y="339" type="line"/>
      <point x="590" y="339" type="line"/>
    </contour>
    <contour>
      <point x="26" y="147.39" type="curve" smooth="yes"/>
      <point x="26" y="369.501" type="line" smooth="yes"/>
      <point x="26" y="419.163"/>
      <point x="82.2012" y="516"/>
      <point x="211.52" y="516" type="curve" smooth="yes"/>
      <point x="237.48" y="516" type="line"/>
      <point x="237.48" y="368" type="line"/>
      <point x="211.52" y="368" type="line" smooth="yes"/>
      <point x="187.824" y="368"/>
      <point x="184.17" y="359.656"/>
      <point x="183.087" y="357.579" type="curve"/>
      <point x="183.087" y="156.621" type="line"/>
      <point x="185.124" y="152.325"/>
      <point x="191.7" y="143"/>
      <point x="211.52" y="143" type="curve" smooth="yes"/>
      <point x="237.48" y="143" type="line"/>
      <point x="237.48" y="-1" type="line"/>
      <point x="211.52" y="-1" type="line" smooth="yes"/>
      <point x="80.8809" y="-1"/>
      <point x="26" y="98.9678"/>
    </contour>
  </outline>
</glyph>
<glyph name="circumflex" format="1">
  <advance width="270"/>
  <unicode hex="02C6"/>
  <outline>
    <contour>
      <point x="1.87207" y="499" type="line"/>
      <point x="91.6747" y="681" type="line"/>
      <point x="176.216" y="681" type="line"/>
      <point x="268.414" y="499" type="line"/>
      <point x="152.656" y="499" type="line"/>
      <point x="134.246" y="536.479" type="line"/>
      <point x="116.492" y="499" type="line"/>
    </contour>
  </outline>
</glyph>
<glyph name="caron" format="1">
  <advance width="270"/>
  <unicode hex="02C7"/>
  <outline>
    <contour>
      <point x="1.87207" y="681" type="line"/>
      <point x="116.492" y="681" type="line"/>
      <point x="134.246" y="643.521" type="line"/>
      <point x="152.656" y="681" type="line"/>
      <point x="268.414" y="681" type="line"/>
      <point x="176.216" y="499" type="line"/>
      <point x="91.6747" y="499" type="line"/>
    </contour>
  </outline>
</glyph>
<glyph name="breve" format="1">
  <advance width="244"/>
  <unicode hex="02D8"/>
  <outline>
    <contour>
      <point x="233" y="526" type="line" smooth="yes"/>
      <point x="233" y="464.716"/>
      <point x="183.284" y="415"/>
      <point x="122" y="415" type="curve" smooth="yes"/>
      <point x="60.7157" y="415"/>
      <point x="11" y="464.716"/>
      <point x="11" y="526" type="curve" smooth="yes"/>
      <point x="11" y="541" type="line"/>
      <point x="105" y="541" type="line"/>
      <point x="105" y="526" type="line" smooth="yes"/>
      <point x="105" y="516.173"/>
      <point x="112.178" y="509"/>
      <point x="122" y="509" type="curve" smooth="yes"/>
      <point x="131.827" y="509"/>
      <point x="139" y="516.178"/>
      <point x="139" y="526" type="curve" smooth="yes"/>
      <point x="139" y="541" type="line"/>
      <point x="233" y="541" type="line"/>
    </contour>
  </outline>
</glyph>
<glyph name="dotaccent" format="1">
  <advance width="202"/>
  <unicode hex="02D9"/>
  <outline>
    <contour>
      <point x="11" y="678" type="curve" smooth="yes"/>
      <point x="11" y="728.011"/>
      <point x="50.5327" y="769"/>
      <point x="101" y="769" type="curve" smooth="yes"/>
      <point x="151.467" y="769"/>
      <point x="191" y="728.011"/>
      <point x="191" y="678" type="curve" smooth="yes"/>
      <point x="191" y="627.8"/>
      <point x="151.2" y="588"/>
      <point x="101" y="588" type="curve" smooth="yes"/>
      <point x="50.8002" y="588"/>
      <point x="11" y="627.8"/>
    </contour>
  </outline>
</glyph>
<glyph name="tilde" format="1">
  <advance width="333"/>
  <unicode hex="02DC"/>
  <outline>
    <contour>
      <point x="314.882" y="101.238" type="line" smooth="yes"/>
      <point x="279.155" y="79.1713"/>
      <point x="249.194" y="71"/>
      <point x="223" y="71" type="curve" smooth="yes"/>
      <point x="161.614" y="71"/>
      <point x="130.695" y="111"/>
      <point x="92" y="111" type="curve" smooth="yes"/>
      <point x="77.3858" y="111"/>
      <point x="58.1058" y="106.145"/>
      <point x="33.8615" y="91.2251" type="curve" smooth="yes"/>
      <point x="11" y="77.1565" type="line"/>
      <point x="11" y="214.705" type="line"/>
      <point x="18.5579" y="219.024" type="line" smooth="yes"/>
      <point x="48.1957" y="235.96"/>
      <point x="73.7681" y="243"/>
      <point x="96" y="243" type="curve" smooth="yes"/>
      <point x="156.048" y="243"/>
      <point x="185.063" y="202"/>
      <point x="227" y="202" type="curve" smooth="yes"/>
      <point x="245.197" y="202"/>
      <point x="267.47" y="208.582"/>
      <point x="299.225" y="227.828" type="curve" smooth="yes"/>
      <point x="322" y="241.631" type="line"/>
      <point x="322" y="105.634" type="line"/>
    </contour>
  </outline>
</glyph>
<glyph name="hungarumlaut" format="1">
  <advance width="336"/>
  <unicode hex="02DD"/>
  <outline>
    <contour>
      <point x="262.331" y="590" type="line"/>
      <point x="150.868" y="590" type="line"/>
      <point x="182.404" y="755.294" type="line"/>
      <point x="119.331" y="590" type="line"/>
      <point x="7.86759" y="590" type="line"/>
      <point x="42.5913" y="772" type="line"/>
      <point x="185.591" y="772" type="line"/>
      <point x="188.779" y="772" type="line"/>
      <point x="331.779" y="772" type="line"/>
    </contour>
  </outline>
</glyph>
<glyph name="emdash" format="1">
  <advance width="906"/>
  <unicode hex="2014"/>
  <outline>
    <contour>
      <point x="895" y="372" type="line"/>
      <point x="895" y="215" type="line"/>
      <point x="11" y="215" type="line"/>
      <point x="11" y="372" type="line"/>
    </contour>
  </outline>
</glyph>
<glyph name="dagger" format="1">
  <advance width="453"/>
  <unicode hex="2020"/>
  <outline>
    <contour>
      <point x="442" y="592" type="line"/>
      <point x="442" y="435" type="line"/>
      <point x="312" y="435" type="line"/>
      <point x="312" y="-71" type="line"/>
      <point x="141" y="-71" type="line"/>
      <point x="141" y="435" type="line"/>
      <point x="11" y="435" type="line"/>
      <point x="11" y="592" type="line"/>
      <point x="141" y="592" type="line"/>
      <point x="141" y="779" type="line"/>
      <point x="312" y="779" type="line"/>
      <point x="312" y="592" type="line"/>
    </contour>
  </outline>
</glyph>
<glyph name="daggerdbl" format="1">
  <advance width="453"/>
  <unicode hex="2021"/>
  <outline>
    <contour>
      <point x="141" y="779" type="line"/>
      <point x="312" y="779" type="line"/>
      <point x="312" y="592" type="line"/>
      <point x="442" y="592" type="line"/>
      <point x="442" y="435" type="line"/>
      <point x="312" y="435" type="line"/>
      <point x="312" y="273" type="line"/>
      <point x="442" y="273" type="line"/>
      <point x="442" y="116" type="line"/>
      <point x="312" y="116" type="line"/>
      <point x="312" y="-71" type="line"/>
      <point x="141" y="-71" type="line"/>
      <point x="141" y="116" type="line"/>
      <point x="11" y="116" type="line"/>
      <point x="11" y="273" type="line"/>
      <point x="141" y="273" type="line"/>
      <point x="141" y="435" type="line"/>
      <point x="11" y="435" type="line"/>
      <point x="11" y="592" type="line"/>
      <point x="141" y="592" type="line"/>
    </contour>
  </outline>
</glyph>
<glyph name="bullet" format="1">
  <advance width="352"/>
  <unicode hex="2022"/>
  <outline>
    <contour>
      <point x="11" y="344" type="curve" smooth="yes"/>
      <point x="11" y="436.011"/>
      <point x="83.5313" y="511"/>
      <point x="176" y="511" type="curve" smooth="yes"/>
      <point x="268.467" y="511"/>
      <point x="341" y="436.011"/>
      <point x="341" y="344" type="curve" smooth="yes"/>
      <point x="341" y="251.8"/>
      <point x="268.201" y="179"/>
      <point x="176" y="179" type="curve" smooth="yes"/>
      <point x="83.8002" y="179"/>
      <point x="11" y="251.799"/>
    </contour>
  </outline>
</glyph>
<glyph name="fraction" format="1">
  <advance width="560"/>
  <unicode hex="2044"/>
  <outline>
    <contour>
      <point x="-0.803513" y="-17" type="line"/>
      <point x="449.606" y="717" type="line"/>
      <point x="560.577" y="717" type="line"/>
      <point x="117.466" y="-17" type="line"/>
    </contour>
  </outline>
</glyph>
<glyph name="EURO" format="1">
  <advance width="567"/>
  <unicode hex="20AC"/>
  <outline>
    <contour>
      <point x="323" y="-13.3092" type="line"/>
      <point x="323" y="152.934" type="line"/>
      <point x="333.41" y="156.28" type="line" smooth="yes"/>
      <point x="357.6" y="164.056"/>
      <point x="366" y="171.576"/>
      <point x="366" y="198.803" type="curve" smooth="yes"/>
      <point x="364.837" y="243" type="line"/>
      <point x="251" y="243" type="line"/>
      <point x="251" y="202" type="line" smooth="yes"/>
      <point x="251" y="161.851"/>
      <point x="258.653" y="168.539"/>
      <point x="285.144" y="154.189" type="curve" smooth="yes"/>
      <point x="293" y="149.934" type="line"/>
      <point x="293" y="-14.1522" type="line"/>
      <point x="276.892" y="-12.959" type="line" smooth="yes"/>
      <point x="190.4" y="-6.55223"/>
      <point x="156.181" y="35.76"/>
      <point x="122.016" y="80.9787" type="curve" smooth="yes"/>
      <point x="99.4332" y="111.089"/>
      <point x="86.2166" y="144.972"/>
      <point x="84.0275" y="181.093" type="curve" smooth="yes"/>
      <point x="84" y="181.546" type="line"/>
      <point x="84" y="243" type="line"/>
      <point x="35" y="243" type="line"/>
      <point x="35" y="332" type="line"/>
      <point x="84" y="332" type="line"/>
      <point x="84" y="362" type="line"/>
      <point x="35" y="362" type="line"/>
      <point x="35" y="451" type="line"/>
      <point x="84" y="451" type="line"/>
      <point x="84" y="496" type="line" smooth="yes"/>
      <point x="84" y="541.516"/>
      <point x="91.8274" y="582.129"/>
      <point x="121.922" y="621.897" type="curve" smooth="yes"/>
      <point x="161.451" y="677.029"/>
      <point x="211.202" y="710.818"/>
      <point x="277.508" y="712.992" type="curve" smooth="yes"/>
      <point x="293" y="713.5" type="line"/>
      <point x="293" y="547.698" type="line"/>
      <point x="283.385" y="544" type="line" smooth="yes"/>
      <point x="249.257" y="530.874"/>
      <point x="251" y="530.472"/>
      <point x="251" y="488" type="curve" smooth="yes"/>
      <point x="251" y="451" type="line"/>
      <point x="364.679" y="451" type="line"/>
      <point x="366" y="501.197" type="line" smooth="yes"/>
      <point x="366" y="528.423"/>
      <point x="357.599" y="535.944"/>
      <point x="333.41" y="543.72" type="curve" smooth="yes"/>
      <point x="323" y="547.066" type="line"/>
      <point x="323" y="713.309" type="line"/>
      <point x="338.306" y="712.997" type="line" smooth="yes"/>
      <point x="392.114" y="711.899"/>
      <point x="435.163" y="687.09"/>
      <point x="474.747" y="646.464" type="curve" smooth="yes"/>
      <point x="515.037" y="605.085"/>
      <point x="532" y="548.292"/>
      <point x="532" y="514" type="curve" smooth="yes"/>
      <point x="532" y="503.578" type="line"/>
      <point x="390.76" y="451" type="line"/>
      <point x="423" y="451" type="line"/>
      <point x="423" y="361" type="line"/>
      <point x="251" y="361" type="line"/>
      <point x="251" y="332" type="line"/>
      <point x="423" y="332" type="line"/>
      <point x="423" y="243" type="line"/>
      <point x="406.878" y="243" type="line"/>
      <point x="532" y="196.422" type="line"/>
      <point x="532" y="186" type="line" smooth="yes"/>
      <point x="532" y="151.702"/>
      <point x="515.041" y="94.9191"/>
      <point x="474.743" y="53.532" type="curve" smooth="yes"/>
      <point x="435.164" y="12.9106"/>
      <point x="392.119" y="-11.8986"/>
      <point x="338.306" y="-12.9969" type="curve" smooth="yes"/>
    </contour>
  </outline>
</glyph>
<glyph name="TradeMarkSign" format="1">
  <advance width="403"/>
  <unicode hex="2122"/>
  <outline>
    <contour>
      <point x="315" y="715" type="line"/>
      <point x="392" y="715" type="line"/>
      <point x="392" y="469" type="line"/>
      <point x="315" y="469" type="line"/>
      <point x="315" y="485.7" type="line"/>
      <point x="307.949" y="469" type="line"/>
      <point x="254.996" y="469" type="line"/>
      <point x="251" y="478.6" type="line"/>
      <point x="251" y="469" type="line"/>
      <point x="173" y="469" type="line"/>
      <point x="173" y="638" type="line"/>
      <point x="135" y="638" type="line"/>
      <point x="135" y="469" type="line"/>
      <point x="57" y="469" type="line"/>
      <point x="57" y="638" type="line"/>
      <point x="11" y="638" type="line"/>
      <point x="11" y="715" type="line"/>
      <point x="173" y="715" type="line"/>
      <point x="180" y="715" type="line"/>
      <point x="235.045" y="715" type="line"/>
      <point x="281.526" y="602.118" type="line"/>
      <point x="303.252" y="651" type="line"/>
      <point x="315" y="651" type="line"/>
    </contour>
    <contour>
      <point x="180" y="649.185" type="line"/>
      <point x="180" y="643" type="line"/>
      <point x="182.574" y="643" type="line"/>
    </contour>
  </outline>
</glyph>
<glyph name="HKD" format="1">
  <advance width="843"/>
  <unicode hex="5713"/>
  <outline>
    <contour>
      <point x="271.827" y="713" type="line"/>
      <point x="345.138" y="713" type="line"/>
      <point x="314.483" y="610.424" type="line"/>
      <point x="344.65" y="473" type="line"/>
      <point x="271.936" y="473" type="line"/>
      <point x="256" y="545.595" type="line"/>
      <point x="256" y="473" type="line"/>
      <point x="184" y="473" type="line"/>
      <point x="183" y="473" type="line"/>
      <point x="111" y="473" type="line"/>
      <point x="111" y="558" type="line"/>
      <point x="107" y="558" type="line"/>
      <point x="107" y="473" type="line"/>
      <point x="35" y="473" type="line"/>
      <point x="35" y="713" type="line"/>
      <point x="107" y="713" type="line"/>
      <point x="107" y="629" type="line"/>
      <point x="111" y="629" type="line"/>
      <point x="111" y="713" type="line"/>
      <point x="183" y="713" type="line"/>
      <point x="184" y="713" type="line"/>
      <point x="256" y="713" type="line"/>
      <point x="256" y="660.04" type="line"/>
    </contour>
    <component base="dollar" xOffset="322"/>
  </outline>
</glyph>
<glyph name="fl" format="1">
  <advance width="543"/>
  <unicode hex="FB02"/>
  <outline>
    <contour>
      <point x="517" y="696" type="line"/>
      <point x="517" y="0" type="line"/>
      <point x="361" y="0" type="line"/>
      <point x="361" y="549" type="line"/>
      <point x="271.334" y="549" type="line"/>
      <point x="252.837" y="548.472"/>
      <point x="249.335" y="538.898"/>
      <point x="248.5" y="536.125" type="curve"/>
      <point x="248.5" y="515.229" type="line"/>
      <point x="331" y="516.229" type="line"/>
      <point x="331" y="370" type="line"/>
      <point x="248.5" y="370" type="line"/>
      <point x="248.5" y="0" type="line"/>
      <point x="89" y="0" type="line"/>
      <point x="89" y="370" type="line"/>
      <point x="26" y="370" type="line"/>
      <point x="26" y="516" type="line"/>
      <point x="89" y="516" type="line"/>
      <point x="89" y="537" type="line" smooth="yes"/>
      <point x="89" y="589.069"/>
      <point x="144.465" y="694.898"/>
      <point x="269.658" y="696" type="curve"/>
    </contour>
  </outline>
</glyph>
